<?xml version="1.0" encoding="UTF-8"?>
<svg version="1.1" viewBox="0 0 408.75 468.75" xmlns="http://www.w3.org/2000/svg">
 <path d="m197.27 467.46c-4.0011-1.0968-9.1139-4.2532-14.132-8.7243-5.9857-5.3332-6.9635-5.9189-9.8812-5.9189-1.637 0-6.1673 0.91074-10.067 2.0239-9.9904 2.8514-21.532 2.9056-27.38 0.12863-2.3931-1.1364-5.196-3.1403-6.2287-4.4531-1.0326-1.3128-2.3333-2.3869-2.8904-2.3869-0.55708 0-1.6949-1.3189-2.5284-2.9308-2.5339-4.9-5.0527-6.6973-18.442-13.159-0.89535-0.43209-2.3009-0.78561-3.1235-0.78561-0.82257 0-4.0978-1.5342-7.2783-3.4092-3.1805-1.8751-7.2593-4.2353-9.064-5.2448-6.6652-3.7286-7.992-5.6016-13.653-19.273-2.3699-5.7236-9.5417-10.697-21.972-15.236-6.9038-2.5213-14.482-9.7976-18.278-17.55-2.3701-4.8403-2.5007-5.7305-1.8996-12.947 0.83073-9.9728-0.65596-13.452-9.663-22.614-3.646-3.7087-7.5992-8.51-8.7849-10.67-1.1857-2.1596-2.7488-5.0149-3.4735-6.345-1.506-2.764-0.68897-9.7805 2.4734-21.242 5.7713-20.918 5.6044-22.227-4.7636-37.385-8.5869-12.554-8.0859-25.639 1.3612-35.552l4.3159-4.5286-1.3422-5.3296c-0.73821-2.9313-1.5768-6.3843-1.8635-7.6733-0.28674-1.2891-0.88065-2.8017-1.3198-3.3614s-0.90989-5.8331-1.0461-11.719l-0.2476-10.701 3.4259-5.4208c4.7523-7.5197 5.2418-8.0205 10.389-10.629 3.122-1.582 5.4287-3.6835 7.3245-6.6729 3.1255-4.9284 3.3686-7.016 1.3731-11.792-2.0853-4.9909-2.8285-15.582-1.3998-19.949 2.6051-7.9636 11.04-16.439 18.115-18.201 6.6329-1.6524 6.6589-1.693 7.2502-11.34 0.7938-12.951 3.0617-18.357 10.549-25.149 3.6019-3.2673 5.546-3.99 15.161-5.6364 8.0872-1.3847 15.422-4.6913 19.323-8.7114 2.0052-2.0662 3.6457-4.281 3.6457-4.9217 0-0.64078 2.1094-4.0226 4.6875-7.5151s4.6875-6.7142 4.6875-7.1594c0-0.44515 0.43026-0.80936 0.95613-0.80936s2.7407-1.1502 4.9219-2.556c3.4631-2.2321 5.0264-2.5837 12.334-2.7742 4.6023-0.11999 9.6648-0.49411 11.25-0.83138 7.3798-1.5702 13.786-6.0822 19.765-13.922 4.8916-6.4132 17.564-8.0157 30.561-3.8645 6.8499 2.1879 7.3461 2.2218 12.568 0.85813 2.9901-0.78083 7.5314-2.515 10.092-3.8538 4.9068-2.5657 7.3695-2.236 8.0206 1.0738 0.44163 2.2453-1.2916 3.9879-4.6305 4.6557-1.5787 0.31574-4.154 1.4881-5.7228 2.6052-3.903 2.7792-15.143 3.5746-19.537 1.3825-1.6794-0.83782-4.0676-1.5233-5.3069-1.5233s-4.1598-0.48007-6.49-1.0668c-3.6197-0.91146-4.4604-0.84319-5.7723 0.46875-0.84456 0.84456-1.0889 1.5356-0.54299 1.5356s2.2183 1.0538 3.7165 2.3418c1.6227 1.3951 3.6606 2.2478 5.0407 2.1094 1.8413-0.18472 2.9476 0.70328 5.3906 4.3267 3.4288 5.0855 4.4078 3.2655 1.133-2.1061-2.4701-4.0517-1.1685-5.9685 2.6112-3.8455 5.4583 3.0659 11.237 19.63 8.5798 24.595-1.3327 2.4902-2.415 1.2871-4.2443-4.7183-1.8373-6.032-4.8588-11.408-3.5387-6.2962 0.39948 1.5469 0.80688 6.783 0.90533 11.636 0.14053 6.9277 0.50721 9.0634 1.7066 9.9405 1.5917 1.1639 7.7613 10.058 12.021 17.33 1.3592 2.3203 3.5662 5.2415 4.9043 6.4915s2.433 3.0514 2.433 4.003c0 1.52 4.0092 8.8636 5.5308 10.13 1.1975 0.9971 9.9662 14.83 13.075 20.625 1.7976 3.3516 3.8312 6.4311 4.519 6.8435 0.68781 0.41234 1.2506 1.5526 1.2506 2.534 0 3.2285 1.9918 6.4524 3.6323 5.8791 1.2392-0.43303 1.305-0.29655 0.35206 0.73045-1.5127 1.6303-1.4785 3.1999 0.14889 6.84 0.72642 1.6248 1.5404 4.0089 1.8087 5.2979s1.3598 5.4727 2.4254 9.2971c1.7089 6.1332 2.908 14.639 4.3064 30.547l0.41205 4.6875-1.486-3.2812c-0.8173-1.8047-1.7577-5.9893-2.0898-9.2991-0.38936-3.8803-1.0671-6.1714-1.908-6.4504-0.96095-0.3187-1.1583 0.15478-0.74989 1.7991 0.30485 1.2274 0.84845 7.193 1.208 13.257 0.74035 12.487 1.6211 14.691 5.1337 12.846 4.4541-2.3401 5.5485-2.7775 6.9497-2.7775 0.78043 0 1.419-0.35059 1.419-0.77908 0-0.4285 1.1602-1.3777 2.5781-2.1094 1.418-0.73166 4.0081-2.2795 5.7558-3.4397 2.3932-1.5886 4.5399-2.1094 8.6951-2.1094 5.1561 0 5.5816-0.16883 6.4987-2.5781 0.56602-1.4871 0.85375-7.8015 0.67991-14.921-0.16575-6.7888 0.0251-12.67 0.42409-13.069 0.39899-0.3993 1.4537 3e-3 2.3438 0.89302 1.3994 1.4 1.6152 3.6399 1.5957 16.559l-0.0226 14.94 2.3664 0.91094c1.3015 0.50101 3.2101 1.0437 4.2414 1.2059 1.2525 0.19704 1.9735 1.1482 2.1716 2.8651 0.26263 2.2753-0.0129 2.5701-2.402 2.5701-1.4843 0-4.5357-0.88755-6.7809-1.9723-3.039-1.4683-4.9408-1.8051-7.4417-1.3181-1.8477 0.35984-4.6111 0.88682-6.1408 1.171-1.5297 0.28424-3.3858 1.1213-4.1246 1.8601-1.1302 1.1302-1.1352 1.3075-0.0312 1.1173 2.0526-0.35357 6.4684 1.1179 6.4684 2.1555 0 0.51443 1.0018 1.7234 2.2263 2.6866 3.1596 2.4854 4.501 8.6284 3.3796 15.477-1.509 9.2148-1.1584 21.033 0.73489 24.774 0.90931 1.797 1.6332 4.6283 1.6086 6.2916-0.0524 3.5487 1.9754 4.8338 2.919 1.8498 0.35853-1.1338 1.3291-3.0973 2.1569-4.3633 2.9012-4.4371 3.8216-9.0245 3.8356-19.116 0.0172-12.347 1.6241-18.448 6.1973-23.527 3.0226-3.3571 3.8304-3.7315 8.8319-4.0933 5.4078-0.39116 5.539-0.34246 7.4289 2.7576 3.1244 5.1248 2.667 12.082-1.317 20.031-1.809 3.6094-4.5975 9.5156-6.1968 13.125-6.3207 14.265-13.388 27.656-14.596 27.656-1.9346 0-1.5516 0.8236 1.6273 3.4984 8.4646 7.1225 13.703 24.888 11.27 38.22-1.5618 8.5585-7.998 20.642-14.09 26.451-7.4051 7.0624-19.649 11.748-33.907 12.976l-6.17 0.53155-0.21435 10.489c-0.11789 5.7691-0.66026 12.279-1.2052 14.467-1.7786 7.1398 0.96699 26.266 5.1567 35.923 3.3312 7.6777 4.4644 15.659 3.4184 24.077-0.54488 4.3848-0.74275 8.2203-0.43972 8.5233 0.30303 0.30302 1.4815-0.55297 2.6188-1.9022 2.5827-3.0639 5.6995-4.6713 7.625-3.9324 2.1556 0.82718 1.7994 3.0969-0.63521 4.0483-2.777 1.0852-6.6305 4.7781-5.793 5.5517 0.36249 0.33488 0.84741 0.0816 1.0776-0.56302 0.23018-0.64453 1.2022-1.1719 2.1601-1.1719 0.95784 0 1.9904-0.4027 2.2946-0.89489s4.5348-0.89488 9.4013-0.89488 9.0971 0.40269 9.4013 0.89488c0.30419 0.49219 1.6672 0.89489 3.029 0.89489 5.6497 0-3.6046-3.9683-12.43-5.3302-5.1749-0.79855-5.4199-1.0077-3.8335-3.2725 0.8552-1.221 1.2254-3.0305 0.91244-4.4602-1.3383-6.1144-5.1155-16.511-7.9368-21.846-0.47348-0.89535-0.86088-2.2315-0.86088-2.9692 0-0.73768-0.87516-3.3801-1.9448-5.8721-2.6634-6.205-3.4796-10.626-5.0768-27.5-1.9226-20.311-1.8678-23.168 0.45912-23.906 1.0312-0.32731 2.6133-0.36078 3.5156-0.0743 1.4649 0.46494 1.6406 2.0031 1.6406 14.36 0 16.931 1.8766 31.294 5.1155 39.152 3.1725 7.6971 7.5069 19.386 8.343 22.5 0.55389 2.0625 1.2746 4.7414 1.6016 5.9532 0.75623 2.8024 7.7484 6.0768 11.152 5.2224 2.1264-0.5337 2.379-1.0634 2.3604-4.9492-0.0137-2.8695-0.64524-5.1498-1.8542-6.6953-1.0083-1.2891-1.8427-2.6883-1.8542-3.1094-0.0114-0.42112-0.97113-2.1086-2.1326-3.75-3.4366-4.8567-4.2651-6.3231-8.5719-15.172-2.2586-4.6406-4.5557-10.336-5.1047-12.656s-1.7037-6.9609-2.5661-10.312c-2.5022-9.7241-2.744-13.125-0.93344-13.125 0.84378 0 1.6787 0.52734 1.8554 1.1719 0.17671 0.64454 0.85817 3.4922 1.5143 6.3281 0.65618 2.8359 1.8224 6.6328 2.5917 8.4375 0.76927 1.8047 1.8135 4.3359 2.3204 5.625 1.9324 4.9136 4.1127 8.2601 11.299 17.344 4.0795 5.1562 7.8441 10.43 8.3658 11.719 2.838 7.0126 4.4656 11.877 4.4656 13.346 0 2.017 1.7281 2.19 2.4735 0.24761 0.29681-0.77344 1.0619-1.4062 1.7003-1.4062s1.8649-0.77824 2.7257-1.7294c0.86082-0.95117 3.2465-2.2843 5.3016-2.9626 2.055-0.67823 3.7364-1.3396 3.7364-1.4698s-2.3203-2.5756-5.1562-5.4342-5.1627-5.9542-5.1706-6.8789c-7e-3 -0.92473-2.0118-4.2906-4.4531-7.4798s-6.3133-8.2517-8.6044-11.25-4.6514-5.8734-5.2452-6.389c-0.59381-0.51563-2.074-2.4141-3.2892-4.2188-1.2153-1.8047-2.4874-3.4922-2.8271-3.75-1.2198-0.92601-3.6916-6.5073-3.6916-8.3356 0-1.0264 0.3838-2.1034 0.8529-2.3934 1.9022-1.1756 4.0932 0.97678 7.1276 7.0022 1.7583 3.4916 5.7571 9.3155 8.8861 12.942 6.1715 7.1528 10.447 12.994 14.869 20.316 1.5573 2.5781 4.2822 6.0901 6.0553 7.8045 3.5897 3.4706 9.9692 6.1495 11.381 4.7791 0.48985-0.47563 1.65-0.86479 2.5781-0.86479 2.7497 0 2.22-5.7707-0.87554-9.5374-4.2165-5.1308-5.8587-5.6988-3.8725-1.3395 0.72388 1.5887 0.80926 2.8157 0.23587 3.3891-1.124 1.124-9.2856-5.7931-11.197-9.4902-0.74308-1.437-2.6445-3.8215-4.2254-5.299-2.9386-2.7464-4.4128-4.9285-6.9588-10.301-0.79415-1.6758-2.0113-3.0469-2.7048-3.0469s-2.7919-2.2148-4.6631-4.9219c-1.8712-2.707-4.2506-5.9766-5.2876-7.2656-2.0048-2.492-4.4044-10.013-5.336-16.723-0.53247-3.8354-0.44271-4.0488 1.5776-3.75 1.5778 0.23332 2.4377 1.3046 3.2641 4.0668 2.011 6.7217 9.2942 19.33 13.461 23.303 2.2404 2.1364 5.2592 5.5718 6.7083 7.6343 1.5228 2.1674 4.5515 4.724 7.1765 6.0579 7.2396 3.6789 15.025 9.4352 16.374 12.106 0.68363 1.3536 1.9924 3.4672 2.9083 4.6969 2.1045 2.8254 2.1524 8.8378 0.0982 12.315-2.1991 3.7228-7.6738 6.0161-12.514 5.2421-2.6029-0.41622-4.6566-0.17583-6.3651 0.74506-1.3872 0.74775-3.8934 1.9144-5.5692 2.5926-1.6758 0.67819-3.0469 1.56-3.0469 1.9596 0 0.87788 4.7943-0.157 6.0469-1.3052 0.48985-0.44905 3.7345-0.81646 7.2103-0.81646s6.5804-0.42187 6.8991-0.9375c0.31867-0.51562 2.1743-0.9375 4.1236-0.9375 2.8812 0 3.7462-0.44336 4.6241-2.3701 0.59394-1.3035 1.7163-2.6143 2.4942-2.9128 1.6902-0.64859 1.9935-8.3111 0.36871-9.3152-0.63445-0.39211-0.86408-2.2572-0.58391-4.7428 0.34688-3.0775 0.14058-4.0966-0.82935-4.0966-2.0204 0-1.5224-2.8466 1.1802-6.7465 2.3366-3.3717 5.2183-4.5971 6.3822-2.714 0.55051 0.89074-4.6088 5.7104-6.1129 5.7104-0.47607 0-0.86557 0.63281-0.86557 1.4062 0 1.7123 1.3004 1.8136 3.0091 0.23438 4.1543-3.8393 5.7951-4.6821 10.735-5.5141 3.0109-0.50708 6.4883-0.93829 7.7275-0.95823 1.5278-0.0246 1.861-0.27855 1.0353-0.78891-0.66981-0.41396-0.9669-1.4066-0.66021-2.2058 0.37432-0.97545 0.13487-1.2909-0.72841-0.95963-0.70731 0.27142-1.5163 1.0937-1.7978 1.8273-1.0067 2.6235-11.99 0.93868-13.122-2.013-0.28297-0.7374-1.3414-1.3407-2.3522-1.3407-1.7715 0-3.9483-1.8806-11.668-10.08-1.982-2.1051-4.9351-4.3637-6.5625-5.0191-1.6274-0.65544-4.2246-2.0827-5.7715-3.1718-1.5469-1.089-3.9837-2.5632-5.4151-3.2759-4.6098-2.2952-20.366-19.089-20.366-21.707 0-2.6264 4.3894 0.26737 12.004 7.9135 6.434 6.4609 10.525 9.6809 15.781 12.422 4.0466 2.1102 10.579 6.8138 15.202 10.946 11.273 10.076 15.535 11.901 19.752 8.4569 1.7928-1.4638 1.8799-1.9131 0.80784-4.1695-0.66084-1.3909-2.8291-3.3976-4.8183-4.4594-1.9893-1.0618-4.7318-2.5325-6.0946-3.2682-1.3628-0.73572-6.2647-3.1528-10.893-5.3713-4.6284-2.2185-11.347-6.2543-14.929-8.9686-3.5826-2.7142-6.8513-4.9349-7.2637-4.9349s-1.3736-1.2062-2.136-2.6804c-0.76237-1.4742-2.7771-3.2443-4.4772-3.9335-3.8574-1.5637-10.083-6.5856-10.105-8.1516-0.02-1.3811 2.4338-1.5783 3.2478-0.26106 0.3096 0.50094 2.4368 1.7397 4.7272 2.7529 4.565 2.0193 7.6866 4.198 18.258 12.743 6.9904 5.6504 11.043 7.789 22.286 11.76 3.2336 1.1422 6.1099 2.4498 6.3917 2.9059 0.60713 0.98235 7.4232 4.5524 8.6916 4.5524 0.4846 0 0.8811-1.3891 0.8811-3.087 0-3.7364 2.3969-9.744 4.9882-12.502l1.8987-2.0211-2.152-1.5074c-1.1836-0.82904-3.088-1.5074-4.2319-1.5074s-2.3406-0.42188-2.6592-0.9375c-0.31867-0.51563-1.9258-0.9375-3.5713-0.9375-3.1599 0-11.61-1.674-20.535-4.0678-5.8828-1.5779-9.8128-3.2887-17.612-7.6666-2.8359-1.5918-7.171-3.4576-9.6335-4.146-5.0685-1.417-6.0232-2.3548-4.3949-4.3168 1.5651-1.8858 4.6748-1.6735 7.4659 0.50981 1.2891 1.0083 2.6352 1.8427 2.9914 1.8542 0.35623 0.0114 4.227 1.7056 8.6016 3.7647 7.5209 3.54 12.601 4.7994 26.376 6.5382 3.0938 0.39054 9.2685 1.7014 13.722 2.913 6.7178 1.8278 8.5138 2.0129 10.547 1.0866 1.8222-0.83023 2.4503-1.8134 2.4503-3.8353 0-4.0702-3.3174-5.0543-15.118-4.4848-9.8269 0.47425-13.665-0.0661-23.382-3.2916-2.8703-0.95288-5.9346-1.7325-6.8096-1.7325s-2.3235-0.38238-3.2188-0.84974c-0.89535-0.46735-3.5263-1.3547-5.8466-1.9718-4.3829-1.1657-6.5625-2.4464-6.5625-3.8557 0-1.8671 9.9114-0.18282 17.344 2.9474 1.0312 0.43433 3.1406 1.0105 4.6875 1.2803 1.5469 0.26987 4.9219 0.95961 7.5 1.5328 2.5781 0.57315 5.5312 0.99024 6.5625 0.92685 26.106-1.6046 29.931-0.83983 32.238 6.4457 1.1587 3.6608 1.1275 4.3993-0.28737 6.7945-1.2031 2.0366-1.2895 2.6873-0.35702 2.6873 1.5078 0 3.1822-3.85 3.93-9.0365 0.49274-3.4174 0.28058-4.063-1.7787-5.4122-1.928-1.2633-2.3382-2.2836-2.3382-5.8169 0-3.528 0.33868-4.3735 1.9174-4.7863 1.0546-0.27578 2.7711-2.1749 3.8146-4.2202 1.7996-3.5275 1.8141-3.8106 0.28106-5.5046-2.4143-2.6678-3.2005-2.1906-3.2005 1.9426 0 6.2557-2.1454 7.0126-20.592 7.2649-8.5261 0.11662-19.299 0.32756-23.94 0.46875-6.912 0.2103-9.1155-0.0823-12.188-1.6183-4.8099-2.405-5.0681-4.8137-0.46875-4.3732 4.808 0.46051 15.179 0.30245 34.219-0.5215 16.761-0.72533 16.877-0.74522 17.187-2.935 0.17164-1.2126 0.0581-3.2165-0.25223-4.4531-0.47481-1.8918-1.1439-2.2484-4.2187-2.2484-2.0099 0-5.5447 0.81028-7.8551 1.8006-4.8462 2.0773-19.798 4.2931-28.97 4.2931-4.7137 0-6.7024-0.40672-7.913-1.6183-2.9134-2.9159-3.125-2.8702 23.115-4.9952 4.3828-0.35494 8.3906-0.94932 8.9062-1.3209 0.51562-0.37154 3.9341-1.6189 7.5966-2.772 5.6623-1.7826 7.2351-1.9413 10.507-1.0602 2.1165 0.56993 4.1019 1.4466 4.4119 1.9482 0.31002 0.50162 1.1219 0.91203 1.8041 0.91203 1.0062 0 1.0286-0.61619 0.11842-3.2638-0.61711-1.7951-1.4112-3.5529-1.7645-3.9062-1.3908-1.3908-0.59952-10.33 1.2325-13.924 2.1267-4.1713 2.5047-8.3324 0.70313-7.7391-0.64454 0.21227-1.3165 1.3766-1.4932 2.5875-0.17671 1.2109-1.0205 3.2663-1.875 4.5676-0.85455 1.3013-1.7647 5.096-2.0225 8.4327-0.54294 7.0268-2.0976 8.3334-4.1294 3.4705-1.3176-3.1534-1.5445-3.2848-4.0241-2.3314-1.4453 0.55572-5.9127 1.346-9.9275 1.7562-4.0697 0.41584-8.0106 1.3573-8.9062 2.1277-1.7509 1.5061-14.746 3.8004-22.232 3.9251-4.0421 0.0674-4.7254-0.18656-4.9625-1.8441-0.24582-1.7178 0.65128-2.1095 8.4375-3.6841 4.7919-0.96906 11.244-2.8152 14.338-4.1026 3.0938-1.2874 8.4607-2.625 11.927-2.9724 8.368-0.83895 14.914-4.1645 16.059-8.159 2.3643-8.2438-3.2073-10.525-10.128-4.1457-4.7548 4.3829-11.169 8.1742-15.28 9.031-6.2333 1.2994-3.0221-2.6243 10.764-13.152 7.8441-5.9901 12.703-8.0359 14.595-6.1444 0.56779 0.56779 1.6022 1.0323 2.2988 1.0323 0.82813 0 0.40026-1.1356-1.2363-3.2812-1.3765-1.8047-3.2715-3.2812-4.2111-3.2812-2.3388 0-3.0719-1.4982-2.9404-6.009l0.11178-3.8347-1.777 3.5557c-0.97736 1.9556-3.1358 5.1197-4.7965 7.0312-3.0484 3.5089-11.075 8.6318-13.525 8.6318-0.72979 0-2.7127 1.2106-4.4064 2.6903s-5.7475 4.0328-9.0083 5.6735c-4.6371 2.3333-6.8839 2.9216-10.312 2.7003-3.7258-0.24045-4.3837-0.57588-4.3837-2.2349 0-2.2489 10.185-11.642 12.624-11.642 2.2724 0 7.5321-5.5138 7.5321-7.8959 0-2.2023 4.5484-12.056 5.8034-12.573 0.4175-0.17188 0.75911-0.83662 0.75911-1.4772s0.97641-2.082 2.1698-3.2031c1.697-1.5943 3.3191-2.0384 7.4447-2.0384 2.9012 0 5.5356 0.42187 5.8543 0.9375 0.31868 0.51562 1.028 0.9375 1.5764 0.9375 1.9944 0-1.0998-2.5241-5.0866-4.1494-8.723-3.5561-11.861-5.4617-12.248-7.4378-0.22845-1.167-0.44623-0.58343-0.52048 1.3946-0.20261 5.3977-2.7706 10.274-7.8225 14.853-2.5762 2.3352-5.6917 5.9637-6.9233 8.0633-4.1571 7.0866-20.737 21.609-22.574 19.772-0.96529-0.96528 2.3466-5.5301 10.101-13.923 18.309-19.816 17.067-18.138 16.338-22.067-0.36104-1.9453-1.2916-4.245-2.0678-5.1104-0.88962-0.99175-1.1726-2.3258-0.76553-3.6084 0.51263-1.6152 1.207-1.9526 3.3657-1.6358 1.8839 0.2765 2.7199 3e-4 2.7199-0.89859 0-0.94703-1.0769-1.2199-3.9844-1.0095-3.8619 0.27942-4.0712 0.46448-6.8098 6.0209-1.554 3.1529-3.4103 8.4264-4.1252 11.719-2.1901 10.086-14.178 25.205-19.986 25.205-2.6707 0-1.9206-2.4776 1.9048-6.2919 5.9222-5.905 14.25-19.677 14.25-23.565 0-3.4965 3.8553-12.352 6.4095-14.722 3.0517-2.832 9.4442-5.3818 12.421-4.9546 1.2285 0.17629 3.1432 1.7208 4.3399 3.501 2.7404 4.0763 3.0199 1.0789 0.31325-3.36-2.1902-3.592-3.8758-4.5602-9.4217-5.4117-5.8922-0.90471-13.995-5.0666-14.606-7.5026-0.35429-1.4116-1.219-1.9677-3.0233-1.9441-1.6359 0.0214-2.527-0.4629-2.527-1.3733 0-0.95912 0.74523-1.306 2.3438-1.0908 3.8476 0.51783 0.99694-1.2598-5.1562-3.2153-3.0938-0.98321-6.6797-1.7876-7.9688-1.7876-1.9746 0-2.316-0.40606-2.1673-2.5781 0.19814-2.8942-0.50546-3.085-5.1848-1.4062-2.6131 0.9375-3.3452 0.9375-3.6603 0-0.21666-0.64453-0.98354-1.1719-1.7042-1.1719-2.7434 0-2.8257-5.4717-0.28188-18.75 1.5557-8.1207 1.5571-30.186 3e-3 -41.25-1.3576-9.6628-1.4238-10.544-3.0155-40.173-0.96908-18.04-0.9266-20.166 0.43003-21.522 2.8355-2.8355 3.5384-0.12129 3.4867 13.463-0.0271 7.1155 0.30516 13.391 0.73837 13.945s1.0524 6.2807 1.376 12.726c0.61098 12.169 2.3881 25.437 3.516 26.25 0.35758 0.25781 0.87982 1.5234 1.1605 2.8125s0.33118-2.7188 0.11214-8.9062-0.93777-13.781-1.5972-16.875-0.98375-7.4902-0.72074-9.7698l0.47818-4.1448 1.2391 4.6136c0.68149 2.5375 1.8012 5.6683 2.4882 6.9573 1.6363 3.0701 3.2035 11.454 4.2059 22.5 0.71704 7.9014 0.76298 7.3196 0.40711-5.1562-1.5049-52.757-1.5052-53.49-0.0251-58.474 0.79276-2.6695 2.1243-5.5366 2.959-6.3712 1.6639-1.6639 1.6796-2.0141-0.49009 10.939-0.47501 2.8359-1.0716 6.4219-1.3257 7.9688s0.12941 5.9766 0.85224 9.8438c3.6491 19.523 4.8665 54.765 2.4289 70.312-1.5388 9.8145-3.7662 26.401-3.8028 28.317-0.0215 1.1274 1.005 1.7686 3.4851 2.1768 1.9336 0.31829 4.4246 1.02 5.5356 1.5593 2.7932 1.356 3.6421 0.56457 4.9419-4.607 2.2216-8.8391 2.8555-11.16 5.32-19.477 1.3751-4.6406 3.2874-10.498 4.2498-13.016 0.96211-2.518 1.7495-5.1604 1.7495-5.8721 0-0.71167 0.41758-2.0265 0.92796-2.9219s2.2278-5.0029 3.8166-9.1279 3.4283-8.3438 4.0879-9.375 1.6626-3.9844 2.229-6.5625c0.56631-2.5781 1.5187-6.7969 2.1164-9.375 1.9818-8.5482 2.091-14.176 0.37547-19.341-2.2488-6.7704-1.5326-23.331 1.237-28.604 1.0452-1.99 2.4208-5.0035 3.057-6.6967 0.63616-1.6933 2.0506-3.8026 3.1433-4.6875 3.2634-2.6428 4.322-6.3721 4.322-15.225 0-7.7252-0.16819-8.482-2.1778-9.7987-2.0324-1.3316-2.6115-1.2046-8.6719 1.9029-7.4206 3.8049-13.766 4.4652-19.15 1.9927-6.1707-2.8336-11.718-6.4744-16.132-10.587-5.3339-4.9704-6.5827-5.2219-5.2894-1.0653 1.5579 5.0075 1.6036 5.3966 2.0864 17.76 0.39389 10.087 0.25951 11.822-0.88153 11.384-0.97018-0.3723-1.3613 0.23159-1.4003 2.1618-0.13148 6.5201-0.94192 10.246-2.4718 11.365-1.4051 1.0274-1.7608 0.89539-2.5121-0.93234-0.77333-1.8812-0.95791-1.6157-1.5846 2.2798-0.86257 5.3614-3.1309 9.1811-4.0421 6.8065-0.97634-2.5443-0.65857-6.4726 0.68181-8.4289 0.69689-1.0171 1.5261-4.1087 1.8426-6.8704s0.97173-5.5038 1.456-6.0938c1.2424-1.5134 1.6918-7.105 0.57814-7.1926-0.50877-0.04004-1.0523 0.68777-1.2077 1.6173-0.15549 0.92958-0.73929 2.6116-1.2973 3.7379-0.55805 1.1263-0.79728 2.8789-0.53162 3.8948 0.39864 1.5244-0.0707 1.9116-2.6871 2.2171-2.6017 0.30374-3.17 0.05635-3.17-1.3798 0-1.2687 0.47151-1.6003 1.7144-1.2058 1.4588 0.46302 1.6517 0.11697 1.2939-2.3212-0.45992-3.1336-2.3703-3.3103-2.8223-0.26093-0.15551 1.0491-1.2102 2.3962-2.3438 2.9935-1.1336 0.59731-3.4945 2.1317-5.2465 3.4097s-3.9801 2.3237-4.9513 2.3237c-2.4373 0-3.1868-2.5343-1.3498-4.5641 0.83711-0.92498 1.2424-1.9614 0.90071-2.3031-0.34172-0.34171 0.1609-1.4856 1.1169-2.542 4.1561-4.5925 5.6022-18.221 2.7815-26.216-1.9063-5.4032-1.783-6.4322 0.85018-7.0931 3.1689-0.79535 5.8662 0.93301 7.1963 4.6112 0.9147 2.5296 1.6573 3.1567 3.8104 3.2179 2.1869 0.062183 2.6741-0.31653 2.6741-2.0786 0-1.185-0.84375-3.2273-1.875-4.5383-1.9646-2.4975-2.4969-5.3692-0.99536-5.3692 0.4838 0 2.2653 1.2656 3.9589 2.8125 4.9557 4.5263 6.3088 3.2624 1.5055-1.4062-3.5435-3.4441-4.9718-4.2188-7.7787-4.2188-3.8162 0-8.3219 1.8343-14.151 5.7609-5.9399 4.0014-11.232 5.4604-19.861 5.4755-7.727 0.01354-9.549 1.123-3.8865 2.3667 4.6555 1.0225 6.0556 4.2855 6.0212 14.032-0.0339 9.6281-1.6032 14.093-7.3856 21.014-3.2389 3.8767-3.3656 4.3073-3.3656 11.44 0 4.3159 0.39156 7.4113 0.9375 7.4113 0.51562 0 0.9375-1.6358 0.9375-3.6352s0.59976-4.133 1.3328-4.7413c1.2913-1.0717 1.545-1.0068 6.0587 1.5493 0.87503 0.49553 0.9811 6.7567 0.12344 7.2867-1.5098 0.93311-1.1971 5.46 0.33656 4.8715 1.5922-0.61099 2.5988 5.5078 1.8353 11.157-0.33473 2.477-0.0233 4.7973 0.88056 6.5625 0.7691 1.5019 1.7215 4.6291 2.1164 6.9495s0.90186 3.6914 1.1265 3.0469c0.71977-2.0653 3.0796-1.2544 4.0927 1.4062 1.9315 5.0727 4.4138 19.609 5.5631 32.578 0.45694 5.1562 1.2411 12.117 1.7425 15.469 2.1629 14.458 2.3359 20.409 0.66706 22.956-1.7228 2.6294-3.3757 2.379-3.3757-0.51144 0-1.0008-0.42188-1.8197-0.9375-1.8197-0.51563 0-0.9375 0.42187-0.9375 0.9375 0 0.51562-0.44037 0.9375-0.9786 0.9375s-0.85463-0.60515-0.70312-1.3448c0.1515-0.73963-0.14641-1.3442-0.66203-1.3435-0.51563 6.8e-4 -1.0378 1.3441-1.1604 2.9854-0.13669 1.8304-1.1506 3.7971-2.6226 5.0868-2.6091 2.2861-6.6944 3.67-7.7418 2.6225-0.36093-0.36093-0.94507-5.7905-1.2981-12.066-0.67056-11.92-1.6069-20.694-3.9693-37.191-1.7399-12.15-4.4473-26.317-5.5542-29.062-1.0486-2.6013-3.7074-24.748-4.2768-35.625-0.53756-10.269-0.66459-10.795-2.6738-11.081-1.3661-0.19402-2.1094-0.94546-2.1094-2.1326 0-1.0377 0.91525-2.1819 2.1094-2.637 5.6157-2.1405 10.904-15.25 9.7373-24.137-1.9711-15.008-2.9405-15.347-2.9405-1.0272 0 8.7336-0.29957 10.988-1.7432 13.116-1.9954 2.9419-3.4131 2.6073-3.4131-0.80573 0-1.3641-0.40223-2.0952-0.96236-1.749-0.52931 0.32712-0.88464 1.0903-0.78964 1.696 0.27347 1.7435-1.2681 4.7087-3.3587 6.4606-2.3197 1.9439-4.2643 2.1312-4.2643 0.41087 0-1.687 3.0491-4.3641 4.9706-4.3641 1.3641 0 1.4761-1.053 0.97255-9.1406-0.31302-5.0273-0.94697-9.7734-1.4088-10.547-0.51268-0.85864-0.60227 1.0724-0.23006 4.959 0.46713 4.8779 0.23641 7.3423-0.98741 10.547-0.87834 2.2999-1.984 4.1816-2.4569 4.1816s-0.85996 0.5651-0.85996 1.2558c0 1.6266-3.9988 3.4317-7.6023 3.4317-3.483 0-12.097-2.6518-13.837-4.2595-2.4519-2.266-0.12889-3.2405 7.7252-3.2405 7.3919 0 7.8598-0.12712 10.461-2.8421 2.353-2.456 2.7129-3.5361 2.6491-7.9505-0.0406-2.8096-0.48346-5.644-0.98414-6.2985-0.50066-0.65456-1.4789-2.6667-2.1738-4.4714-1.4447-3.7517-6.0335-10.917-8.5786-13.396-2.5071-2.4416-2.1968-5.1992 0.66586-5.9177 3.4918-0.8764 13.151 1.0577 21.518 4.3089 8.7144 3.3859 23.923 4.5894 26.889 2.1279 2.6143-2.1696 18.424-9.6231 20.412-9.6231 3.0718 0 10.178 4.005 17.387 9.799 3.6094 2.9009 10.359 7.6708 15 10.6 7.4665 4.7125 8.9651 5.3117 13.022 5.2075 2.5216-0.06478 5.4747-0.55371 6.5625-1.0865s4.572-1.879 7.7426-2.9916l5.7648-2.0229 4.4626 2.2255c5.6538 2.8195 13.429 11.595 14.507 16.372 0.44201 1.9598 0.57776 7.583 0.3017 12.496-0.48685 8.6645-0.41063 9.1159 2.5376 15.027 4.257 8.5346 4.1406 12.462-0.66659 22.5-2.099 4.3828-4.8896 10.711-6.2011 14.062-2.6839 6.8584-10.784 33.82-13.941 46.406-0.64678 2.5781-1.724 5.7422-2.3937 7.0312-0.66976 1.2891-1.2203 2.822-1.2235 3.4066-5e-3 0.91827-4.5346 12.299-9.0914 22.843-0.77994 1.8047-1.8462 4.3359-2.3694 5.625s-1.2951 3.0301-1.7153 3.869c-0.4202 0.83887-1.0281 3.1592-1.3509 5.1562-0.32279 1.9971-0.76942 4.5319-0.99251 5.6329-0.29945 1.478 0.14402 2.1324 1.6946 2.5007 14.041 3.335 17.04 5.7587 18.958 15.322 0.71405 3.559 2.8071 5.5487 6.5793 6.2543 6.6292 1.2401 8.6034 1.9406 11.45 4.0623 3.1624 2.3572 6.8312 9.3615 6.8312 13.042 0 4.2673 1.8092 6.7974 7.2042 10.075 12.242 7.4367 13.938 13.852 7.1862 27.177l-2.2947 4.5283 4.241 3.9249c5.101 4.7208 7.1009 9.8396 7.1009 18.175v6.0455l-5.1562 5.4058c-2.8359 2.9732-5.1562 6.049-5.1562 6.8352 0 0.78619 0.84375 2.5021 1.875 3.8131 1.0312 1.311 1.875 2.8502 1.875 3.4204s0.42187 1.8748 0.9375 2.899c0.51562 1.0243 1.3594 2.7003 1.875 3.7246 1.1536 2.2916 1.2339 8.1564 0.12109 8.8441-0.44903 0.27752-1.0543 1.6939-1.345 3.1475-0.83951 4.1976-4.6499 7.2579-10.702 8.5951-8.5759 1.895-10.611 4.7054-7.6474 10.56 3.9015 7.708 0.76255 20.195-6.4667 25.726-3.774 2.8871-9.9632 4.9074-15.236 4.9734-6.5334 0.0817-9.0299 4.265-6.5063 10.903 1.4869 3.9109-3.1946 17.489-7.5489 21.894-4.1178 4.1661-10.452 6.1515-16.897 5.2965-2.5559-0.33906-6.7475-0.33783-9.3147 3e-3 -4.2175 0.55947-4.8879 0.99204-6.9515 4.4854-5.1365 8.6955-13.387 13.255-23.68 13.086-4.5793-0.0753-7.2209-0.7936-12.817-3.4854-3.8771-1.8651-7.4292-3.3908-7.8936-3.3908s-3.3128 2.7944-6.33 6.2097c-6.3378 7.1742-9.5083 8.7903-17.245 8.7903-4.485 0-6.1044-0.43361-8.2332-2.2045-6.5043-5.4106-10.888-5.7356-17.688-1.3112-10.796 7.0253-16.558 8.3823-25.353 5.9713zm4.9806-6.7721c-0.31153-0.31152-1.1201-0.34482-1.7969-0.074-0.74787 0.29927-0.52573 0.52142 0.56641 0.5664 0.98827 0.0407 1.542-0.18087 1.2305-0.49239zm8.2226-11.13 4.6875-1.3016-7.9688-0.021c-7.4897-0.0198-7.7997 0.0564-5.1562 1.2668 3.5016 1.6033 2.879 1.5992 8.4375 0.0558zm36.433-0.0219c-0.31459-0.8198-1.7186-1.4062-3.3666-1.4062-2.4066 0-2.6534 0.20913-1.6599 1.4062 0.6419 0.77344 2.1569 1.4062 3.3666 1.4062 1.57 0 2.0451-0.4025 1.6599-1.4062zm-69.48-3.0054c-1.1602-0.22346-3.0586-0.22346-4.2188 0-1.1602 0.22345-0.21093 0.40628 2.1094 0.40628s3.2695-0.18283 2.1094-0.40628zm16.846-5.5756c-2.7226-5.4545-4.3877-16.897-3.1221-21.455 0.56706-2.0425 1.0334-4.846 1.0362-6.23 0.0141-6.7716 17.133-36.961 19.128-33.732 0.78786 1.2748-1.2274 6.7252-3.7388 10.112-5.8799 7.9292-11.841 26.116-11.726 35.775 0.12931 10.844 1.6357 14.487 6.6793 16.152 4.4496 1.4685 6.5373 0.74446 6.5373-2.2673 0-1.2748 0.37405-2.549 0.83122-2.8316 1.321-0.81641 2.3154-7.0936 2.0517-12.952-0.13333-2.9622 0.20278-8.2357 0.74692-11.719 0.54413-3.4831 1.4386-9.9969 1.9877-14.475 0.5491-4.4783 1.785-10.174 2.7463-12.656 0.96139-2.4826 2.4684-7.2561 3.349-10.608s1.9804-7.0628 2.4441-8.2472c0.46366-1.1844 0.84302-3.3744 0.84302-4.8666s0.42188-2.9738 0.9375-3.2925c0.51563-0.31867 0.91052-1.9256 0.87755-3.571l-0.06-2.9915-1.2459 2.8125c-0.68527 1.5469-2.7826 6.8663-4.6608 11.821s-4.4026 9.9364-5.6099 11.071l-2.1951 2.0622-0.57689-2.2985c-0.36911-1.4706 0.26467-4.2015 1.7596-7.5817 1.2851-2.9057 2.3365-6.09 2.3365-7.0761 0-0.98611 0.42187-2.0537 0.9375-2.3723 0.51562-0.31867 0.9375-1.3759 0.9375-2.3495s1.0547-3.7537 2.3438-6.178 2.3438-4.899 2.3438-5.4992c0-2.1188 5.3404-6.2981 7.6332-5.9736 2.0266 0.2868 2.2354 0.82 2.5092 6.4066 0.4167 8.5019-1.8266 19.288-7.4093 35.625-3.0191 8.8349-3.0449 9.0639-3.2288 28.594-0.16509 17.539-0.92989 26.38-2.8569 33.027-0.59743 2.0608-0.56428 2.0688 2.414 0.58304 2.2198-1.1074 4.6094-1.3788 9.0212-1.0247 6.4028 0.51396 8.3499-0.46792 5.243-2.644-2.1226-1.4867-3.5518-8.1646-4.502-21.035-0.61224-8.2932 0.87527-36.046 2.412-45 2.8252-16.463 4.0168-33.469 2.4171-34.496-0.54809-0.35215-3.7387-0.9347-7.0903-1.2945s-7.4648-0.93946-9.1406-1.2881c-3.0407-0.63253-3.0469-0.62614-3.0469 3.1673 0 2.0906-0.42188 4.0618-0.9375 4.3805-0.51563 0.31867-0.9375 1.3402-0.9375 2.2702s-1.3109 3.3308-2.9131 5.3353-3.2988 4.6451-3.7702 5.868c-0.92676 2.4042-7.7392 12.54-10.458 15.559-3.231 3.5887-10.425 21.879-12.364 31.436-1.5098 7.4403-3.6159 12.421-9.2776 21.939-2.4546 4.1266-5.9949 8.0613-7.2532 8.0613-0.4615 0-0.83856 0.52734-0.83789 1.1719 8.6e-4 0.83425 2.0942 1.1797 7.2656 1.1989 6.771 0.0252 7.7102 0.28603 13.827 3.8394 3.6094 2.0968 6.6974 3.7075 6.8623 3.5794 0.16488-0.12809-0.51029-1.8558-1.5004-3.8394zm30.263-0.25843c-1.6414-0.64686-1.4982-0.82251 1.149-1.4098 3.2105-0.71229 5.3304-0.0395 4.436 1.4078-0.63759 1.0316-2.9702 1.0325-5.585 2e-3zm35.642 1.0138c-0.91146-0.17911-2.5537 0.59057-3.6495 1.7104l-1.9923 2.036 3.6495-1.7104c2.582-1.2101 3.1648-1.8056 1.9923-2.036zm31.389 2.6694c0-0.51563-0.94922-0.93104-2.1094-0.92315-1.7057 0.0116-1.8403 0.18827-0.70312 0.92315 1.8176 1.1746 2.8125 1.1746 2.8125 0zm-128.19-2.4899c-0.63472-0.2568-1.9004-0.27243-2.8125-0.0348-0.91216 0.2377-0.39285 0.44781 1.154 0.46692 1.5469 0.0191 2.2932-0.17537 1.6585-0.43218zm81.741-2.4319c2.1525-4.9013 3.5044-34.988 1.8524-41.224-2.6583-10.036-3.3522-18.918-2.2324-28.574 0.58593-5.0524 1.3785-12.983 1.7612-17.624 0.81269-9.8539 2.1073-13.748 4.9933-15.019 2.3583-1.0388 3.4027-5.2172 3.3931-13.574l-6e-3 -5.1562-1.5155 3.2812c-6.7373 14.587-8.1936 17.53-9.3388 18.874-0.73095 0.85777-1.5157 4.5652-1.7859 8.4375-0.2651 3.7991-1.0715 10.493-1.7919 14.876-2.9392 17.881-3.3387 23.055-3.4087 44.148-0.0722 21.754 0.96952 32.223 3.3715 33.885 1.9736 1.3656 3.3935 0.66302 4.7076-2.3294zm-96.993-1.3324c0-0.34611-0.64319-1.34-1.4293-2.2087-0.78612-0.86865-1.8795-4.135-2.4297-7.2585-2.0972-11.906 2.1952-24.627 13.417-39.762 2.9773-4.0155 6.8121-8.0455 8.5218-8.9557 6.7384-3.5871 9.1235-5.5553 11.642-9.6068 1.4421-2.32 3.8877-5.5093 5.4345-7.0875 6.6394-6.7737 14.977-16.621 16.185-19.117 0.719-1.4846 3.805-5.2757 6.8578-8.4247s5.5505-6.1043 5.5505-6.5672c0-1.5215-5.7251-5.6959-7.8118-5.6959-1.409 0-2.4528 0.9455-3.3636 3.0469-3.9162 9.0356-17.649 24.753-27.55 31.531-2.4785 1.6969-5.7247 4.7669-7.2136 6.8223s-4.9454 6.2811-7.6811 9.3904c-2.7356 3.1093-5.8579 7.1916-6.9383 9.0718s-3.9281 6.4814-6.3281 10.225-4.3637 7.0174-4.3637 7.2752c0 0.63849-6.6003 9.991-8.1385 11.532-0.68008 0.68136-1.2365 1.6249-1.2365 2.0968 0 1.062-5.486 3.4087-9.9078 4.2382-3.6266 0.68035-3.8786 2.5522-0.41178 3.0584 2.8242 0.41238 8.2971 3.8772 11.27 7.1347 4.3617 4.7799 15.925 11.504 15.925 9.26zm149.75 0.0629c-0.31153-0.31152-1.1201-0.34482-1.7969-0.074-0.74787 0.29927-0.52573 0.52142 0.56641 0.5664 0.98827 0.0407 1.542-0.18087 1.2305-0.49239zm-136.92-4.2845c2.6379-2.4782 2.849-4.5262 0.40061-3.8859-4.0717 1.0648-3.2284-1.6806 4.0838-13.294 1.6232-2.5781 4.1278-7.6406 5.5658-11.25 5.0293-12.624 4.1124-10.703 10.739-22.5 2.317-4.125 5.1503-8.3438 6.2962-9.375 1.146-1.0312 4.4853-5.623 7.4208-10.204 10.876-16.973 11.234-19.258 1.0348-6.6146-8.2463 10.222-9.9222 11.968-17.902 18.65-3.6094 3.0221-7.7051 6.7504-9.1016 8.2851s-4.5797 4.9489-7.0738 7.5871c-10.766 11.388-16.937 29.88-12.848 38.498 2.907 6.126 7.4781 7.774 11.384 4.1043zm182.68-9.274c0.96193-1.5564 0.0985-1.7723-1.2474-0.31182-0.66486 0.72143-0.79523 1.3117-0.2897 1.3117 0.50552 0 1.1972-0.44994 1.5371-0.99987zm-228.12-4.033c1.4026-1.0654 0.67671-1.4259-5.625-2.7935-3.9794-0.8636-8.1846-1.8255-9.3447-2.1375-1.1822-0.31797-2.1094-0.14593-2.1094 0.39139 0 1.1205 7.801 3.9475 10.893 3.9475 1.1668 0 2.3822 0.42187 2.7008 0.9375 0.75535 1.2222 1.5217 1.1462 3.4854-0.34541zm2.3545-7.721c-0.31153-0.31152-1.1201-0.34482-1.7969-0.074-0.74787 0.29927-0.52573 0.52142 0.56641 0.5664 0.98827 0.0407 1.542-0.18087 1.2305-0.49239zm-23.557-8.3266c-1.1312-1.7265-1.2647-2.8569-0.55688-4.7185 0.51191-1.3464 0.93075-4.1358 0.93075-6.1987 0-2.0628 0.48532-4.6721 1.0785-5.7984 1.8111-3.4387 12.454-16.573 13.453-16.602 0.51562-0.0149 2.8359-1.7678 5.1562-3.8953 4.8513-4.4482 13.466-11.082 14.392-11.082 0.34515 0 2.6271-1.4008 5.0711-3.1128 5.8579-4.1036 13.252-8.077 21.319-11.456 3.6094-1.512 10.359-4.895 15-7.5178 4.6406-2.6227 9.4922-5.3646 10.781-6.093s4.4531-2.628 7.0312-4.2212 6.0586-3.4434 7.7344-4.1116c3.5304-1.4076 3.6362-1.8479 1.349-5.609l-1.6979-2.792-3.224 1.9601c-1.7732 1.078-4.8938 3.3892-6.9348 5.1358-3.7735 3.2293-23.546 13.443-26.025 13.443-0.74703 0-1.6474 0.28913-2.0007 0.64251-1.2499 1.2499-7.7536 3.1635-17.014 5.006-17.158 3.4139-21.289 5.0286-25.687 10.042-2.1552 2.4563-4.6955 5.3495-5.6451 6.4293-2.4496 2.7853-3.824 5.5794-3.824 7.7738 0 1.1869-1.5717 2.973-4.2188 4.7942-3.0057 2.068-4.2188 3.5443-4.2188 5.1343 0 2.8356-1.4215 4.2308-7.1308 6.9992-2.5234 1.2236-5.3205 2.58-6.2159 3.0143-2.1401 1.0381-10.784 1.0196-11.185-0.0239-0.48941-1.2742-4.5312-2.2773-4.5312-1.1246 0 0.55038 0.38566 1.0007 0.85702 1.0007s2.3304 1.4308 4.1312 3.1796c4.0613 3.9441 9.451 5.9529 11.472 4.2756 1.1182-0.92803 1.7496-0.82395 3.2526 0.53624 1.6799 1.5202 1.7233 1.8444 0.438 3.2646-1.2661 1.3991-1.2709 1.9504-0.04252 4.8904 0.76147 1.8224 2.033 3.5624 2.8257 3.8666 0.79265 0.30417 1.4412 1.1991 1.4412 1.9887 0 0.78962 0.37267 1.4357 0.82816 1.4357s1.1167 0.94922 1.4693 2.1094c0.40328 1.3267 0.82441 1.6634 1.135 0.90747 0.27158-0.66106-0.17565-2.2236-0.99385-3.4723zm12.796 3.5846c-0.64453-0.26007-1.6992-0.26007-2.3438 0-0.64453 0.26007-0.11718 0.47287 1.1719 0.47287s1.8164-0.2128 1.1719-0.47287zm7.5505-7.0134c3.443-1.804 16.31-14.459 18.945-18.633 1.1822-1.8726 3.6159-4.8498 5.4084-6.6159 15.94-15.706 20.055-19.408 26.468-23.815 7.4569-5.1245 27.433-23.927 25.42-23.927-0.60427 0-2.5659 1.1876-4.3592 2.6392-5.2314 4.2345-27.167 16.111-29.757 16.111-0.65858 0-2.7867 1.0033-4.7291 2.2294s-6.2055 3.5792-9.4735 5.2289-6.7044 3.705-7.6365 4.5674c-0.93203 0.86239-3.3051 2.4012-5.2734 3.4195-3.1228 1.6156-5.4939 3.3195-13.731 9.8672-8.859 7.0423-16.567 19.001-16.567 25.704 0 2.1908 0.31641 4.309 0.70313 4.7073 1.0653 1.0969 11.727 0.0124 14.582-1.4833zm210.65-3.109c0-0.71035-5.0375-5.1567-5.4148-4.7794-0.49244 0.49245 3.7148 5.2102 4.6464 5.2102 0.42263 0 0.76843-0.19387 0.76843-0.43081zm-267.89-15.19c-0.64453-0.26007-1.6992-0.26007-2.3438 0s-0.11719 0.47287 1.1719 0.47287c1.2891 0 1.8164-0.2128 1.1719-0.47287zm313.79-11.39c-0.43309-11.927-0.32837-12.332 4.3473-16.812 2.3686-2.2695 4.1432-4.2899 3.9434-4.4896-1.3242-1.3242-4.9604 1.4669-7.7767 5.9694-3.2388 5.178-3.2859 5.4009-3.2859 15.569 0 9.723 0.0863 10.193 1.4998 8.1749 1.082-1.5448 1.4363-3.8877 1.272-8.4117zm-305.35 7.6398c-0.64453-0.26007-1.6992-0.26007-2.3438 0s-0.11719 0.47287 1.1719 0.47287c1.2891 0 1.8164-0.2128 1.1719-0.47287zm-3.9844-1.6789c0-0.39991-2.6745-1.6675-8.716-4.131-3.3647-1.372-3.9009-1.3487-2.3666 0.10262 2.6171 2.4757 11.083 5.5527 11.083 4.0284zm20.364-1.5645c1.1322-1.1322 0.59712-3.6358-0.77704-3.6358-0.46046 0-0.8372 0.81829-0.8372 1.8184 0 1.4109-0.78787 1.9008-3.5156 2.1862l-3.5156 0.36774 3.7969 0.15761c2.0883 0.0866 4.2702-0.31569 4.8486-0.89415zm-12.915-4.4792c0.87931-1.643 8.1053-4.7815 11.009-4.7815 1.105 0 4.8963-1.524 12.477-5.0153 1.2879-0.59314 5.5066-4.2583 9.375-8.1448 10.804-10.855 16.865-15.39 24.022-17.977 10.23-3.697 12.98-4.4881 15.601-4.4881 1.3509 0 2.6894-0.37732 2.9744-0.83847 0.28501-0.46116 2.1029-1.0596 4.0397-1.3299 12.625-1.7618 23.453-6.7508 35.693-16.446 2.0825-1.6494 5.0825-3.4507 6.6666-4.0029 1.7728-0.61799 2.8802-1.6511 2.8802-2.687 0-2.639-2.0215-2.7454-6.0938-0.32076-2.0625 1.228-6.4922 3.5264-9.8438 5.1076s-6.7785 3.2286-7.6153 3.6608c-2.9906 1.5447-22.112 5.5119-33.166 6.8809-16.156 2.001-24.041 3.9568-34.688 8.6039-6.947 3.0323-11.701 4.1576-17.617 4.1702-5.2309 0.0113-7.33 0.51508-11.768 2.8247-7.2504 3.7734-10.684 7.5529-14.482 15.939-4.4054 9.7292-3.9817 13.53 1.7931 16.085 2.2573 0.99849 4.1041 2.4285 4.1041 3.1778 0 1.9857 3.5205 1.668 4.6372-0.41859zm-18.997-7.7698c-0.29927-0.74787-0.52142-0.52573-0.56641 0.56641-0.04071 0.98827 0.18087 1.542 0.49239 1.2305 0.31152-0.31153 0.34483-1.1201 0.07402-1.7969zm0.6538-7.3242c1.752 0 2.308-0.81812 3.3447-4.9219 0.68385-2.707 2.0292-6.0417 2.9897-7.4103 0.96051-1.3687 1.7464-2.9389 1.7464-3.4894 0-1.3196 11.062-8.4899 14.062-9.1155 1.2891-0.26874 3.0763-0.88499 3.9717-1.3695 0.89535-0.48448 3.0047-0.8959 4.6875-0.91426 3.9871-0.0435 12.274-2.1006 17.591-4.3668 2.3203-0.98894 5.9062-2.2932 7.9688-2.8984s6.6282-1.9485 10.146-2.9851c7.6753-2.2617 15.378-3.6932 25.479-4.7349 11.557-1.192 17.077-2.4844 21.74-5.0904 2.3528-1.315 4.8806-2.3909 5.6174-2.3909 1.8123 0 9.4173-3.5133 10.141-4.685 0.82711-1.3383-0.30926-1.1867-7.1093 0.94841-12.588 3.9525-26.84 6.3791-29.319 4.992-2.3472-1.3136-0.2874-3.3222 4.2244-4.1194 8.4701-1.4966 13.615-2.6514 18.612-4.1774 2.8359-0.86613 6.3164-1.7934 7.7344-2.0606 1.418-0.26717 2.5781-0.85975 2.5781-1.3169 0-0.45709 0.73828-0.8644 1.6406-0.90511 1.1241-0.0507 1.2426-0.23257 0.37631-0.57768-0.69538-0.27702-2.172-0.0646-3.2812 0.47214-1.1093 0.5367-3.2826 1.2412-4.8294 1.5656-1.5469 0.32435-4.7109 0.99069-7.0312 1.4807-15.094 3.1879-33.129 4.9058-46.304 4.4109-10.741-0.40348-12.881-0.22748-16.977 1.3962-5.6358 2.2338-13.137 4.061-20.217 4.9248-4.9904 0.60887-5.5356 0.96061-12.553 8.0982-7.3626 7.4884-10.694 9.7048-18.09 12.035-3.0582 0.96371-4.5298 1.0075-6.3281 0.1881-1.4256-0.64952-2.3432-0.70836-2.3432-0.15023 0 0.50457-1.4314 0.9174-3.1809 0.9174-1.8878 0-3.3893 0.54292-3.6934 1.3355-0.64287 1.6753 3.7244 4.7444 6.7626 4.7524 1.2276 3e-3 2.5522 0.63867 2.9437 1.4121 0.8949 1.768 3.6976 16.393 3.8626 20.156 0.0967 2.2053 0.21104 2.3571 0.52961 0.70312 0.27721-1.4392 1.0738-2.1094 2.5076-2.1094zm212.3-24.953c0.60255-2.1223 1.0955-5.6028 1.0955-7.7344s0.35649-3.8756 0.7922-3.8756c1.7594 0 3.6466 3.4925 3.7444 6.9296 0.15606 5.4845 1.0884 5.3513 1.0884-0.15549 0-2.6336-0.42187-5.0492-0.9375-5.3678-0.51562-0.31867-0.9375-2.0162-0.9375-3.7723 0-2.2651 0.56156-3.4935 1.9324-4.2271 1.6979-0.9087 2.0641-0.68519 3.018 1.842 1.2928 3.425 2.5496 3.7498 2.5496 0.65888 0-3.2198 3.2698-6.8744 6.5861-7.3611 1.5793-0.23179 3.0887-0.0699 3.3543 0.35975 0.26554 0.42966 1.1033 0.78119 1.8617 0.78119 1.0864 0 0.92656-0.78596-0.75367-3.7054l-2.1326-3.7054-2.3485 2.0648c-3.0875 2.7145-6.1822 4.4086-8.0535 4.4086-0.83141 0-2.9296 0.67284-4.6626 1.4952-3.8863 1.8442-10.432 1.3922-19.632-1.3557-8.368-2.4991-8.9062-2.4833-8.9062 0.26121 0 2.3563-3.8592 6.1618-6.2488 6.1618-0.71966 0-2.5128 1.3711-3.9847 3.0469-2.804 3.1923-9.7608 5.9336-12.445 4.9037-2.3368-0.8967-2.9182 1.1596-1.0438 3.6913 2.337 3.1566 8.259 6.1707 12.124 6.1707 2.7144 0 4.1473-0.93241 9.052-5.8904 3.9562-3.9991 6.4205-7.4616 7.6751-10.784 1.0164-2.6914 2.493-5.0812 3.2812-5.3107s3.5138 0.12753 6.0567 0.79326c4.1305 1.0814 4.7629 1.6009 5.9319 4.8729 1.255 3.5128 1.1497 8.5606-0.36003 17.256-0.75568 4.3526 0.85906 2.633 2.3029-2.4525zm5.2742 3.4548c0.29666-0.48 0.11062-1.1377-0.41342-1.4616-0.52403-0.32387-0.95279 0.0688-0.95279 0.87272 0 1.6468 0.56256 1.8892 1.3662 0.58886zm-27.616-1.5264c0-0.80387-0.42188-1.2008-0.9375-0.88217-0.51563 0.31867-0.9375 0.97639-0.9375 1.4616s0.42187 0.88217 0.9375 0.88217c0.51562 0 0.9375-0.65771 0.9375-1.4616zm37.36-3.3127c-0.68004-0.42029-1.4974-3.2094-1.8164-6.1981l-0.57999-5.4339-0.13783 6.7091c-0.13084 6.3685-0.0386 6.6832 1.8164 6.198 1.4603-0.38186 1.6417-0.70421 0.71781-1.2752zm4.8279-3.1945c0-1.2891-0.42188-2.3438-0.9375-2.3438-0.51563 0-0.9375 1.0547-0.9375 2.3438s0.42187 2.3438 0.9375 2.3438c0.51562 0 0.9375-1.0547 0.9375-2.3438zm5.9283-3.843c-0.36071-0.94-0.87101-1.1205-1.4711-0.52041-1.0736 1.0736-0.0342 3.2313 1.1916 2.4737 0.45748-0.28274 0.58325-1.1617 0.27949-1.9533zm-246.12 0.18434c4.0899-2.1244 9.4522-6.7203 12.898-11.054 2.7291-3.4329 3.2106-4.7732 3.2184-8.9587 0.0055-2.9788-0.4006-4.9219-1.0287-4.9219-0.57079 0-0.79886 0.62268-0.50682 1.3837 1.4124 3.6805-4.9198 15.491-8.3055 15.491-0.58398 0-2.0194 1.1013-3.1897 2.4474-1.532 1.762-2.4133 2.162-3.1469 1.4284-0.73361-0.73362-0.57885-1.5053 0.55264-2.7556 1.866-2.062 2.0156-3.6246 0.39972-4.1773-0.86208-0.29489-0.61424-1.5614 0.9375-4.7907 1.1602-2.4144 2.1094-5.3709 2.1094-6.5699 0-3.505-3.9023-8.391-8.4458-10.575-4.6446-2.2323-5.7601-5.2561-2.1294-5.7722 3.6325-0.51644 13.713 2.6002 16.239 5.0209 1.3239 1.2684 2.9874 2.3062 3.6966 2.3062 0.70919 0 3.1353 1.9821 5.3913 4.4047 4.0194 4.3162 4.162 4.3802 7.0968 3.1871 3.2424-1.3182 18.612-3.3604 28.128-3.7374 1.4484-0.0574 2.3998-0.48238 2.1143-0.94441-0.29074-0.47042-6.4426-0.61836-13.981-0.33619-10.088 0.37759-13.64 0.21523-14.173-0.64786-0.3915-0.63347-0.3478-1.5 0.09712-1.9256 0.44492-0.42559 10.09-1.4419 21.434-2.2585 36.847-2.6523 33.957-2.5929 34.45-0.70867 0.39364 1.5053 1.594 1.665 11.588 1.5417 6.132-0.0757 15.262-0.48099 20.29-0.90083 6.934-0.57905 9.1406-0.49025 9.1406 0.36788 0 0.62216 0.42187 0.87046 0.9375 0.55179 3.011-1.8609-0.47116-2.3563-16.172-2.3006-9.4102 0.0334-19.43-0.40285-22.266-0.96932-5.9603-1.1906-18.261-2.5594-30.728-3.4194-4.783-0.32995-8.909-0.94405-9.1689-1.3646-0.25994-0.4206 1.3331-1.2521 3.54-1.8478 4.5967-1.2407 29.381 0.20674 32.546 1.9007 3.2008 1.7131 13.455 1.9125 31.143 0.60589 9.4592-0.69875 18.171-1.1903 19.359-1.0922 2.6018 0.21469 6.0992 3.7862 7.4314 7.5889 0.79484 2.2689 1.0925 2.4816 1.6361 1.1688 0.37198-0.8984 8e-3 -2.9219-0.82835-4.5972-0.82104-1.6458-1.4993-4.2987-1.5072-5.8952-0.0263-5.3155 0.10209-5.285-19.254-4.5788-22.41 0.8176-29.303 0.60117-31.752-0.997-1.0717-0.69936-3.2141-1.5277-4.761-1.8408-1.5469-0.31311-6.3984-1.4604-10.781-2.5495s-9.4453-2.3363-11.25-2.7714c-7.9134-1.9082-16.347-2.851-28.397-3.1747-7.1106-0.19102-13.193-0.61158-13.516-0.93456-0.32299-0.32299-4.4404-0.58725-9.1497-0.58725s-8.9633-0.36662-9.4531-0.81472c-0.52486-0.48013-4.1632 1.3414-8.8594 4.4355-5.854 3.8569-7.4712 5.3268-6.0938 5.5387 4.8467 0.74576 5.908 1.279 6.4166 3.2238 0.72301 2.7648-0.23051 6.3666-1.6854 6.3666-0.63762 0-1.9229 0.84375-2.8562 1.875s-2.4857 1.875-3.4498 1.875c-1.0071 0-2.132 0.99713-2.644 2.3438-0.92571 2.4348-4.6488 3.3568-4.7322 1.1719-0.05311-1.3919-7.3456 13.32-7.4106 14.95-0.05786 1.4515 5.7815 11.286 8.5764 14.444 4.9942 5.6435 14.601 8.0864 20.254 5.1503zm19.193-40.143c-2.4019-3.4366-1.6612-4.4419 3.2899-4.465 3.5854-0.0167 4.7016 1.8201 3.1608 5.2017-1.4248 3.127-3.9519 2.8384-6.4507-0.73663zm151.18 34.713c1.9116-0.87098 2.8619-0.86695 4.2792 0.0181 1.5711 0.98118 1.9342 0.84224 2.6383-1.0096 0.44904-1.1811 1.9183-2.7371 3.2649-3.4578 1.7032-0.91154 2.4485-2.074 2.4485-3.8192 0-3.1677 2.2987-5.1983 6.7969-6.0044 3.2412-0.58081 4.4406-2.1201 2.8731-3.6875-2.6331-2.6331-4.3357-19.294-2.6557-25.987l0.58571-2.3336-8.2531 0.0286c-12.174 0.0422-23.366-3.9835-20.114-7.2353 0.82933-0.82933 2.1038-0.81981 5.3175 0.0398 8.6384 2.3104 8.9014 0.66462 0.6144-3.8457-3.7563-2.0444-5.7169-2.4684-11.178-2.4173l-6.6232 0.062-0.52141 3.9001c-2.585 19.336-2.7512 17.401 2.9521 34.369 3.8584 11.479 5.1254 13.834 11.475 21.328 1.2446 1.4689 2.9591 1.4836 6.1006 0.0522zm-11.308-17.556c-3.0445-1.28-4.4551-3.5626-3.8043-6.1558 0.4188-1.6686 1.2253-2.3559 2.7645-2.3559 4.2785 0 20.641 2.7871 21.519 3.6656 1.8362 1.8362-0.18949 3.644-4.677 4.1738-10.971 1.2953-14.013 1.4248-15.802 0.67238zm21.872-14.837c-0.84634-1.0198-0.78928-1.5158 0.25217-2.1925 2.0208-1.313 5.9777-0.59871 6.3068 1.1385 0.38795 2.048-5.0136 2.916-6.5589 1.054zm-2.1404-6.773c-3.3036-0.60183-4.2842-3.336-1.512-4.2159 3.1968-1.0146 8.5318 0.42916 8.5318 2.3089 0 1.9026-2.8277 2.6707-7.0198 1.907zm71.707 38.41c0-1.0463-0.625-1.875-1.4142-1.875-1.1795 0-1.2199 0.31115-0.24324 1.875 0.64402 1.0312 1.2804 1.875 1.4142 1.875 0.13378 0 0.24323-0.84375 0.24323-1.875zm-6.8791-3.0469c-0.26007-0.64453-0.47287-0.11718-0.47287 1.1719s0.2128 1.8164 0.47287 1.1719c0.26007-0.64453 0.26007-1.6992 0-2.3438zm10.111-5.7792c-1.0027-0.73321-2.0347-1.0989-2.2934-0.81267-0.25862 0.28624 0.0571 0.70878 0.70165 0.93897 0.64454 0.23019 1.1719 1.1006 1.1719 1.9342 0 1.1762 0.25117 1.2644 1.1215 0.39415 0.87032-0.87032 0.71318-1.4201-0.70164-2.4546zm-228.23-0.08017c1.7472-1.2891 3.9386-2.3438 4.8696-2.3438 0.93107 0 1.6929-0.42188 1.6929-0.9375 0-0.51563 1.6676-0.9375 3.7059-0.9375 2.0382 0 4.675-0.37436 5.8594-0.83193 1.1844-0.45755 4.4738-1.3548 7.3097-1.9939 10.51-2.3685 8.5608-3.3454-2.8125-1.4094-1.8047 0.3072-7.2312 1.2224-12.059 2.0338-9.1798 1.5428-12.316 3.2971-12.316 6.8889 0 2.3421-0.0721 2.3511 3.75-0.46875zm-17.473 0c0.2968-0.77344 0.131-1.4062-0.36845-1.4062s-0.90808 0.63281-0.90808 1.4062 0.1658 1.4062 0.36845 1.4062 0.61128-0.63281 0.90808-1.4062zm1.2712-9.5965c-0.21549-1.4251-0.39756-0.48165-0.40459 2.0965-7e-3 2.5781 0.16927 3.7441 0.3918 2.591s0.22829-3.2624 0.0128-4.6875zm248.07 2.0196c-0.42088-1.0968-3.122-2.6799-3.122-1.8297 0 0.20806 0.4461 1.5516 0.99133 2.9857 0.74834 1.9683 1.1867 2.2913 1.7883 1.3179 0.43831-0.70921 0.59241-1.8224 0.34243-2.4739zm-10.153 0.35079c-1.0312-0.59142-2.3889-1.7388-3.0171-2.5496-1.0047-1.297-1.1456-1.2394-1.1719 0.47882-0.039 2.5581 0.70787 3.2092 3.6421 3.1746 2.289-0.0269 2.319-0.0875 0.54687-1.1038zm-99.844-2.9302c0-1.9457-1.1096-2.5868-2.4919-1.4396-1.8172 1.5082-1.5463 2.6896 0.61687 2.6896 1.0312 0 1.875-0.5625 1.875-1.25zm-44.578-1.5057c-0.48984-0.48438-8.4844-1.0576-17.766-1.2737-9.2812-0.21619-18.035-0.71281-19.453-1.1036-2.2243-0.61302-2.5781-0.43818-2.5781 1.2738 0 1.9598 0.2515 1.9843 20.344 1.9843 12.695 0 20.009-0.33113 19.453-0.88068zm11.413-1.6592c-0.66987-0.66986-8.2177-0.4325-8.9444 0.28129-0.21484 0.211 1.8594 0.38364 4.6094 0.38364s4.7008-0.29922 4.3351-0.66493zm135.82-1.2101c-1.9739-2.1812-4.2188-2.4672-4.2188-0.53749 0 1.2592 1.5891 2.0553 4.5984 2.3037 0.98315 0.0812 0.88688-0.36672-0.37968-1.7662zm-188.65-0.61494c-0.63472-0.2568-1.9004-0.27243-2.8125-0.0348-0.91216 0.2377-0.39285 0.44781 1.154 0.46692 1.5469 0.0191 2.2932-0.17537 1.6585-0.43218zm195.69-3.6038c0-0.77344-0.42188-1.4062-0.9375-1.4062-0.51563 0-0.9375 0.63281-0.9375 1.4062s0.42187 1.4062 0.9375 1.4062c0.51562 0 0.9375-0.63281 0.9375-1.4062zm-122.81-1.5066c0-0.46046-0.63281-0.8372-1.4062-0.8372s-1.4062 0.61957-1.4062 1.3768c0 0.83868 0.54965 1.1659 1.4062 0.8372 0.77344-0.29681 1.4062-0.91637 1.4062-1.3768zm116.25-3.5494c0-0.95033-2.8554-2.2449-3.5093-1.591-0.23565 0.23564-0.15036 0.87839 0.18951 1.4283 0.74795 1.2102 3.3198 1.3362 3.3198 0.16267zm-2.5603-11.028c-0.63472-0.2568-1.9004-0.27243-2.8125-0.0348-0.91216 0.2377-0.39285 0.44781 1.154 0.46692 1.5469 0.0191 2.2932-0.17537 1.6585-0.43218zm-112.04-3.7792c-0.89634-0.23464-2.5838-0.24316-3.75-0.0189-1.1662 0.22425-0.43281 0.41624 1.6297 0.42664s3.0166-0.17307 2.1203-0.40772zm-41.712-6.5333c-0.63472-0.2568-1.9004-0.27243-2.8125-0.0348-0.91216 0.2377-0.39284 0.44781 1.154 0.46692 1.5469 0.0191 2.2932-0.17537 1.6585-0.43218zm49.05-1.7267c0.94531-3.7664 0.0113-4.726-4.8034-4.9356-4.6013-0.20025-4.837 0.21868-1.1558 2.054 1.1693 0.58296 2.126 1.6803 2.126 2.4385 0 2.7892-24 1.1912-26.988-1.7969-2.0825-2.0825 0.75922-2.675 8.657-1.805 4.3555 0.47978 8.9961 0.55848 10.312 0.1749 2.5866-0.7537 3.2315-0.6121-14.013-3.0767-9.8929-1.414-36.336-7.3016-52.969-11.794-5.1562-1.3926-10.852-2.8948-12.656-3.3383-1.8047-0.44349-5.1797-1.2711-7.5-1.8391-2.3203-0.56802-6.75-1.466-9.8438-1.9956-6.3628-1.0891-9.3896-3.0696-7.0312-4.6006 0.77344-0.5021 2.4609-0.65495 3.75-0.33966 2.119 0.51827 12.983 2.556 20.156 3.7805 1.5469 0.26408 3.6562 0.84452 4.6875 1.2899s3.3516 1.0654 5.1562 1.3779c8.1927 1.4185 12.109 2.2721 17.344 3.78 3.0938 0.89122 7.3125 1.9876 9.375 2.4364 2.0625 0.44883 5.4375 1.2766 7.5 1.8394 2.0625 0.56282 7.125 1.6242 11.25 2.3586 8.5017 1.5137 14.045 2.648 20.156 4.1243 7.5512 1.8242 12.188 2.2275 12.188 1.0602 0-0.59374-1.1602-1.5702-2.5781-2.1698-1.418-0.59967-5.9531-2.6844-10.078-4.6328-4.125-1.9484-10.031-4.3619-13.125-5.3634-7.1298-2.3079-20.443-7.2538-22.673-8.4233-0.93596-0.49073-3.6002-1.4089-5.9205-2.0404s-6.9609-2.1145-10.312-3.2956c-6.2548-2.2042-7.3124-2.5391-20.156-6.3828-4.125-1.2345-9.6094-3.2-12.188-4.368s-7.0078-3.1589-9.8438-4.4243c-10.253-4.575-21.154-10.113-23.991-12.189l-2.8976-2.1196-1.0677 2.3433c-0.58722 1.2888-2.4474 3.1845-4.1337 4.2126-3.1801 1.9389-10.097 2.582-10.097 0.93885 0-0.51563 0.44561-0.9375 0.99023-0.9375 0.54463 0 3.0759-2.053 5.625-4.5622 3.3393-3.287 4.6348-5.2875 4.6348-7.1569 0-3.0017-1.8286-9.898-2.9705-11.203-1.1061-1.2638-0.96927-6.1406 0.17224-6.1406 2.3848 0 11.547 6.1821 13.566 9.1538 4.3916 6.4628 28.308 18.82 49.701 25.681 3.0938 0.99212 6.4688 2.1605 7.5 2.5964 1.0312 0.43588 3.7734 1.3161 6.0938 1.956 16.597 4.5772 26.222 8.1867 42.799 16.05 8.6184 4.0881 8.913 4.1681 8.165 2.219-0.2968-0.77344-1.0312-1.4062-1.632-1.4062s-2.5596-1.1822-4.3528-2.6272c-1.7933-1.4449-7.6785-5.1363-13.078-8.2031-5.3998-3.0668-10.673-6.0759-11.719-6.6869-4.7626-2.7831-19.185-9.6297-22.995-10.916-4.151-1.4018-7.5932-2.7846-15.938-6.4023-6.739-2.9218-8.4375-3.8674-8.4375-4.6976 0-0.42849 0.6928-0.77908 1.5396-0.77908 3.3777 0 21.054 5.8471 29.183 9.653 1.5508 0.72616 2.4284 0.69645 3.2344-0.1095 1.6347-1.6347 2.606-1.3481 2.606 0.76895 0 1.0312 0.42187 1.875 0.9375 1.875 0.51562 0 0.9375-0.68555 0.9375-1.5234 0-1.1755 0.61128-1.4012 2.6763-0.98817 3.5648 0.71295 30.222 13.95 33.554 16.661 1.4563 1.1852 1.5448 1.1287 0.87043-0.55572-0.41286-1.0312-0.96293-2.6133-1.2224-3.5156-0.33225-1.1555-1.4309-1.6406-3.7158-1.6406-2.2821 0-4.017-0.76451-5.8506-2.5781-2.3162-2.291-23.521-13.324-44.593-23.203-8.1451-3.8184-13.675-7.1487-17.344-10.445-1.2891-1.1581-4.6817-3.175-7.5392-4.4818-2.8575-1.3069-6.4169-3.651-7.9098-5.2092s-3.102-2.8331-3.5759-2.8331c-1.2483 0-8.1626-5.6256-8.1626-6.6413 0-1.6791 2.4389-0.81831 5.4351 1.9183 1.6723 1.5274 4.9304 3.613 7.2402 4.6348 2.3098 1.0217 4.1997 2.2947 4.1997 2.8289s1.749 1.8634 3.8866 2.954c2.1377 1.0906 4.981 2.9976 6.3185 4.2378s2.7943 2.255 3.2373 2.255c0.44297 0 2.2243 0.67329 3.9584 1.4962 5.6672 2.6893 5.5265 0.82894-0.15216-2.0114-3.0415-1.5213-6.1628-3.4047-6.9363-4.1853-0.77344-0.78061-3.0938-2.524-5.1562-3.8741s-6.8439-5.4772-10.625-9.1713c-5.2453-5.1241-6.6364-7.0044-5.8675-7.9309 0.55432-0.66792 0.73028-1.492 0.391-1.8313-1.0917-1.0917-2.1794-0.65879-2.1794 0.8675 0 2.0446-2.1414 1.186-3.2692-1.3106-1.2244-2.7105-2.265-2.5876-6.1412 0.72567-3.4877 2.9811-8.4021 3.8473-8.4021 1.4809 0-1.6559 3.6244-5.1928 5.3213-5.1928 2.0579 0 5.9287-7.1567 5.9287-10.962 0-2.8489-0.73277-4.2454-3.9452-7.5186-3.6466-3.7156-4.3149-4.0199-8.8296-4.0199-2.6864 0-5.5517 0.25607-6.3673 0.56905-2.1032 0.80707-1.8383 2.8693 0.44529 3.4665 1.9108 0.49969 1.9072 0.54568-0.39562 5.0901-1.2781 2.5222-2.9896 5.1384-3.8032 5.8136-0.81366 0.67528-1.4788 1.7035-1.4781 2.2848 0.0019 1.4986 6.6843 8.6341 8.7754 9.3704 1.3196 0.46463 1.6451 1.2981 1.3342 3.4163-0.39157 2.668-0.25113 2.8007 2.9421 2.7808 1.8761-0.0117 4.3857-0.82844 5.697-1.8542 2.5067-1.9607 5.1817-2.4133 6.0415-1.0221 0.9531 1.5422-0.41063 3.4111-4.4274 6.0675-3.6835 2.4361-4.429 2.5802-10.755 2.0792-6.287-0.49788-6.7969-0.4018-6.7969 1.2807 0 1.0004-0.48175 2.8763-1.0706 4.1686-0.79187 1.738-1.463 2.1479-2.5781 1.5746-3.0607-1.5735-10.205-0.35637-12.957 2.2075l-2.613 2.4341 2.1094 0.55803c1.1602 0.30692 2.1094 0.84633 2.1094 1.1987 0 1.266-2.1278 2.7348-3.3065 2.2825-0.75585-0.29004-1.4434 0.63287-1.8497 2.483-0.49218 2.2409-0.254 3.2318 0.9967 4.1463 1.3542 0.9902 1.6256 2.5736 1.5422 8.996-0.08286 6.3809 0.23648 8.2685 1.7611 10.41 1.0243 1.4384 2.3109 3.9022 2.8592 5.475 0.62123 1.7821 1.8447 3.0724 3.2469 3.4244 2.0547 0.51568 2.2501 1.0415 2.2501 6.0551 0 6.8127-1.5781 8.1371-6.5625 5.5076-1.8047-0.95207-3.8301-2.0168-4.5008-2.366-0.67077-0.34921-2.1473 0.20946-3.2812 1.2415s-3.0109 2.3659-4.171 2.9641-2.1094 1.5775-2.1094 2.1761-1.0166 2.5877-2.2591 4.4201c-2.1078 3.1085-2.2122 3.8401-1.5579 10.923 1.01 10.934 4.5983 15.061 12.818 14.743 3.2766-0.12682 4.7847-0.84009 7.9189-3.7453 2.1293-1.9738 4.6531-3.8824 5.6085-4.2414 0.95533-0.35898 2.4542-1.7474 3.3308-3.0853 2.0894-3.1889 0.88847-5.9042-4.206-9.5095-2.8525-2.0187-3.8061-3.3334-3.8211-5.2682-0.02968-3.8233 3.6973-3.4497 8.4536 0.84727 6.448 5.8254 7.8821 8.5211 8.4014 15.792l0.46875 6.5634 11.719 0.1567c7.1351 0.0954 10.802-0.14305 9.375-0.60967-1.2891-0.42151-3.9258-0.80844-5.8594-0.85983-1.9336-0.0514-3.5156-0.54572-3.5156-1.0985 0-1.8435 36.279 0.0792 53.438 2.8321 7.0541 1.1318 12.107 2.1835 20.625 4.2934 10.533 2.609 13.492 3.2772 17.132 3.8694 1.9462 0.31662 3.764 0.94063 4.0397 1.3867 0.27567 0.44604 7.0073 0.81099 14.959 0.81099h14.458l0.58771-2.3416zm-153.13-87.342c-1.7836-0.7197-1.3995-2.9413 0.70312-4.0666 2.4379-1.3047 5.625 0.30752 5.625 2.8455 0 1.4024-0.61528 1.8244-2.5781 1.768-1.418-0.0407-3.1055-0.2868-3.75-0.54687zm319.54 87.644c1.9956-1.1216 5.4178-4.4966 7.605-7.5 2.1871-3.0034 4.3032-5.4608 4.7024-5.4608 1.1506 0 0.84259-4.1957-0.39919-5.4375-2.4403-2.4403-9.1875-0.18358-9.1875 3.0729 0 1.8187-5.3069 12.183-6.9262 13.527-1.7293 1.4352-2.0217 3.8372-0.4671 3.8372 0.57433 0 2.677-0.91765 4.6726-2.0392zm-336.77-1.8048c-2.3394-1.4819-3.0113-0.87467-1.221 1.1035 1.1383 1.2578 1.8938 1.5513 2.1346 0.82907 0.20494-0.61482-0.20614-1.4845-0.91352-1.9326zm109.81 1.0528c-1.8047-0.38535-4.3359-1.1215-5.625-1.636s-4.0312-1.2116-6.0938-1.5493c-3.6424-0.59638-3.6828-0.57421-1.4062 0.77307 1.2891 0.76288 3.7148 1.402 5.3906 1.4203s3.0469 0.4551 3.0469 0.97073c0 0.51562 1.793 0.88898 3.9844 0.82969l3.9844-0.10782-3.2812-0.70064zm100.31-0.5633c0-0.81377-3.2777-4.7179-7.2838-8.6758-9.4485-9.3349-12.678-15.956-9.194-18.848 3.9503-3.2785 14.946 5.1129 22.543 17.204 1.9159 3.0493 4.068 6.1287 4.7824 6.8432 0.71444 0.71445 1.6661 1.955 2.1148 2.7567 0.73343 1.3106 1.0946 1.3135 3.5779 0.0293 6.2406-3.2271 14.675-4.7508 25.731-4.6486 9.97 0.0922 11.378 0.33356 17.109 2.9322 5.3814 2.44 6.2501 2.6129 6.2805 1.2499 0.0194-0.87 1.2668-3.9021 2.772-6.7381 4.8892-9.2118 7.3628-14.703 9.349-20.753 1.0724-3.2665 2.9946-7.5181 4.2717-9.4479s2.322-4.1257 2.322-4.8798c0-0.75407 0.42188-1.6318 0.9375-1.9504 1.2297-0.75997 1.2069-7.5886-0.033-9.9054-1.0614-1.9832-5.4386-2.4632-8.3337-0.91377-2.4574 1.3152-3.6696 7.4139-4.1384 20.822-0.40078 11.462-0.53689 12.118-3.8901 18.75-4.412 8.7261-7.6146 12.29-9.93 11.051-0.92207-0.49348-2.7441-0.89724-4.0489-0.89724-4.2781 0-4.6268-2.2013-4.1528-26.211 0.23964-12.139 0.19608-23.542-0.0968-25.341-0.6296-3.867-3.0219-4.7678-5.8544-2.2045-1.6174 1.4638-1.8237 2.4903-1.3822 6.879 0.28542 2.8372 1.012 7.4789 1.6147 10.315s1.3615 7.4766 1.6863 10.312c0.79912 6.9773-0.39895 22.601-1.7995 23.466-0.61187 0.37815-2.2038 0.39568-3.5377 0.0389-1.8397-0.49201-2.8222-1.7668-4.0691-5.28-0.90413-2.5472-1.6614-5.5806-1.6829-6.7407-0.0439-2.3728 2.2711-2.8958 3.1125-0.70313 0.29679 0.77344 1.2178 1.4062 2.0467 1.4062 1.2887 0 1.4499-1.0526 1.1123-7.2656-0.21713-3.9961-1.078-9.7969-1.913-12.891-1.8033-6.6811-2.046-17.569-0.44863-20.126 1.7225-2.7582 0.11271-3.4254-2.8965-1.2006-4.6454 3.4344-9.0985 4.7522-18.095 5.3547-13.969 0.93546-14.205 1.0106-17.463 5.5473-2.06 2.8686-4.7917 5.0179-9.2156 7.251-4.9018 2.4744-6.4838 3.7938-7.1778 5.9864-0.48961 1.5469-2.3156 4.3068-4.0579 6.1333-1.7422 1.8264-3.1676 3.8409-3.1676 4.4766s-1.2711 1.41-2.8247 1.7207c-2.9673 0.59345-3.2546 1.1943-4.0517 8.4725-0.23658 2.1604-1.1065 5.2838-1.9332 6.9409-1.8292 3.6668-1.9585 5.1899-0.33114 3.9018 1.8205-1.441 10.151-2.1625 14.177-1.228 1.9966 0.46345 4.9497 2.0855 6.5625 3.6046 5.1512 4.8519 10.901 6.6475 10.901 3.4043zm12.481-6.757c-0.61227-0.38932-1.5568-1.8745-2.0989-3.3003-0.80471-2.1166-0.71081-2.698 0.5115-3.167 1.7418-0.66839 7.3595 4.7959 6.4475 6.2714-0.67817 1.0973-3.2777 1.2021-4.8601 0.19591zm15.441-1.8416c-3.5554-4.0735-9.1442-21.792-9.1853-29.121-0.0265-4.7316-2.4494-9.9633-5.0507-10.906-5.2352-1.8968-5.5319 2.4544-0.6689 9.811 4.8794 7.3815 4.7452 11.19-0.34937 9.9112-1.5986-0.40124-3.1699-2.4444-5.5717-7.2455-3.6968-7.3894-4.0374-9.8767-1.9149-13.981 1.291-2.4965 1.8814-2.7659 6.0608-2.7659 3.671 0 4.8384 0.38853 5.6339 1.875 0.55191 1.0312 1.6421 1.875 2.4226 1.875 2.3606 0 5.034 7.3266 5.0568 13.858 0.0144 4.0963 0.82869 8.0927 2.6746 13.125 1.4597 3.9795 3.1339 8.6683 3.7204 10.42 1.5574 4.6505-9.4e-4 6.383-2.8282 3.1439zm-9.3731-0.90831c-2.4026-2.7056-5.4231-8.612-5.4231-10.605 0-3.8783 3.251-1.8713 6.3828 3.9403 2.6319 4.8839 2.9063 5.9508 1.8123 7.0448s-1.5138 1.0364-2.7721-0.38055zm-195.74 8.1739c1.1371-0.73488 1.0026-0.91153-0.70312-0.92315-1.1602-8e-3 -2.1094 0.40752-2.1094 0.92315 0 1.1746 0.99491 1.1746 2.8125 0zm18.75-0.56905c0-0.20264-0.86865-0.36845-1.9303-0.36845-1.0617 0-1.681 0.40345-1.3762 0.89656 0.50026 0.80944 3.3066 0.36123 3.3066-0.52811zm41.027-1.9501c-0.89634-0.23464-2.5838-0.24316-3.75-0.0189-1.1662 0.22425-0.43281 0.41624 1.6297 0.42664s3.0166-0.17307 2.1203-0.40772zm-20.402-2.1442c-3.8672-0.33558-7.6641-0.28019-8.4375 0.12307-0.77344 0.40327 2.3906 0.67782 7.0312 0.61014l8.4375-0.12309-7.0312-0.61012zm137.98-3.6968c-2.5624-2.5356-6.0152-6.5814-7.6728-8.9906-2.164-3.1452-3.3003-4.0941-4.0296-3.3648-1.0689 1.0689-0.23756 2.1642 9.1416 12.044 2.5699 2.707 5.2457 4.9219 5.9462 4.9219 0.70047 0-0.82293-2.0746-3.3853-4.6101zm-36.9-9.6133c-0.3791-2.5763-2.6433-3.4423-2.6433-1.0109 0 1.9458 0.75765 3.0469 2.0965 3.0469 0.46554 0 0.71163-0.91617 0.54687-2.0359zm-19.753-0.5499c-1.418-0.87914-2.5781-1.9226-2.5781-2.3188s-0.64765-0.72036-1.4392-0.72036-2.3736-0.6013-3.5156-1.3362c-1.142-0.73492-4.8186-2.226-8.1701-3.3136-3.3516-1.0876-6.9375-2.3282-7.9688-2.7571-11.669-4.8525-17.308-6.8072-30.469-10.561-3.1806-0.90724-14.474-4.844-18.281-6.3727-1.0312-0.41405-4.7064-1.8974-8.167-3.2962-8.3666-3.382-10.323-2.514-2.6099 1.1577 7.3417 3.4948 25.32 10.529 26.929 10.536 1.4336 7e-3 14.732 4.3589 18.535 6.0663 1.5469 0.69448 7.0312 2.6287 12.188 4.2982 5.1562 1.6696 11.163 3.8186 13.349 4.7756s4.5061 1.7577 5.1562 1.7793c0.65015 0.0216 2.6586 0.84768 4.4633 1.8357 4.0706 2.2285 6.0938 2.4064 2.5781 0.22666zm15.45-7.7267c2.3827-2.2198 1.0973-2.5026-1.884-0.41444-1.1469 0.80331-2.5716 1.16-3.1659 0.79265-0.66899-0.41346-0.82587-0.25557-0.41178 0.41444 1.0052 1.6265 3.2082 1.3068 5.4617-0.79265zm9.0645-0.93205c0.90946-0.48897 0.19072-1.0708-2.3438-1.8974-2.0105-0.65571-3.9654-1.6584-4.3442-2.2282-1.0957-1.6481-0.84837 2.1239 0.27711 4.2269 0.98375 1.8381 2.8588 1.8085 6.4109-0.10124zm-20.117-3.2569c-2.3599-1.7849-3.6431-1.8251-2.0912-0.0654 0.66486 0.75382 1.8168 1.3866 2.5599 1.4062 0.95005 0.025 0.81092-0.37289-0.46875-1.3408zm26.864-1.9048c1.5642-2.6695 2.3602-7.0312 1.2833-7.0312-0.27595 0-1.5133 0.66279-2.7496 1.4729-1.7451 1.1434-2.6814 1.2409-4.1858 0.43577-2.3958-1.2822-2.416-0.86511-0.13927 2.8786 0.98923 1.6267 1.5605 3.5781 1.2695 4.3365-0.99477 2.5924 2.808 0.83265 4.5219-2.0925zm-31.028-0.91343c0-0.24457-1.3314-1.1332-2.9587-1.9747s-3.8162-2.3289-4.8643-3.3053-2.2469-1.7753-2.6642-1.7753c-0.4172 0-2.7634-1.4397-5.2138-3.1994s-7.4084-4.7532-11.018-6.6522c-3.6094-1.8991-6.9633-3.8343-7.4531-4.3006-0.48984-0.46626-2.1773-0.78455-3.75-0.70729-2.8309 0.13906-2.8337 0.14435-0.28125 0.53101 1.418 0.21481 2.5781 0.72836 2.5781 1.1412 0 0.89846 7.063 5.6873 8.3882 5.6873 0.5106 0 3.863 1.8984 7.4499 4.2188s6.8695 4.2293 7.2949 4.2422c0.42533 0.0129 2.6718 1.4789 4.9921 3.2578 3.6442 2.7938 7.5 4.2521 7.5 2.8366zm3.5352-7.817c0.56247-1.6874-1.3753-1.3328-2.0292 0.37131-0.35038 0.91304-0.14085 1.3416 0.54422 1.1133 0.61266-0.20422 1.2809-0.87229 1.485-1.4846zm38.184-4.9134c1.5469-0.83351 3.9727-1.8041 5.3906-2.1568 2.8285-0.70364 3.5929-3.7656 1.1719-4.6946-0.77344-0.29679-1.4062-0.17673-1.4062 0.26682 0 0.44354-1.097 1.0818-2.4378 1.4183-1.3408 0.33652-3.6287 1.4923-5.0842 2.5684-1.7054 1.2609-3.5054 1.7924-5.0622 1.4948-2.784-0.53219-2.7468-0.59897-1.3612 2.4419 1.1412 2.5046 1.8593 2.3952 8.7892-1.3388zm-194.06 1.9251c0.31867-0.51563 0.13263-0.9375-0.41342-0.9375-0.54606 0-0.99283 0.42187-0.99283 0.9375 0 0.51562 0.18604 0.9375 0.41342 0.9375s0.67415-0.42188 0.99283-0.9375zm143.3-9.8738c-0.74366-1.9379-1.265-1.7096-1.265 0.55411 0 1.0617 0.40345 1.681 0.89656 1.3762 0.49311-0.30475 0.6589-1.1734 0.36845-1.9303zm-85.894-1.0051c-0.31152-0.31152-1.1201-0.34482-1.7969-0.074-0.74788 0.29927-0.52573 0.52142 0.56641 0.5664 0.98828 0.0407 1.542-0.18087 1.2305-0.49239zm-4.6875-1.875c-0.31152-0.31152-1.1201-0.34482-1.7969-0.074-0.74788 0.29927-0.52573 0.52142 0.56641 0.5664 0.98828 0.0407 1.542-0.18087 1.2305-0.49239zm-3.4961-1.8005c0-0.27058-0.94922-0.86143-2.1094-1.313-3.7388-1.4553-9.8944-6.464-11.176-9.0937-1.9094-3.9182-3.5897-3.9052-3.5897 0.0279 0 3.2315 0.25286 3.4773 7.2656 7.0625 6.843 3.4984 9.6094 4.4531 9.6094 3.3163zm85.312-0.28213c0-0.42574-0.94922-1.6564-2.1094-2.7348-2.6829-2.4938-16.318-10.554-17.853-10.554-0.63731 0-2.7554-0.85575-4.7069-1.9017-3.4045-1.8247-5.3304-1.7951-5.3304 0.082 0 0.48519 0.66932 0.88217 1.4874 0.88217 0.81806 0 3.252 1.2672 5.4088 2.8161 3.435 2.4668 20.498 11.635 22.401 12.036 0.38672 0.0815 0.70313-0.20018 0.70313-0.62593zm82.285-1.5107c0.34631-0.34632 0.1734-0.92314-0.38426-1.2818-0.55765-0.35868-1.7164-2.0232-2.575-3.699-1.7465-3.4086-2.9016-4.0702-1.9674-1.1269 0.63393 1.9973-1.0719 4.9687-2.3861 4.1564-0.41423-0.25601-0.75315-2.4008-0.75315-4.7661 0-3.7767 0.21889-4.2434 1.7969-3.8307 1.1143 0.29138 1.7969-0.01 1.7969-0.79326 0-2.1884 2.1022-2.6717 3.5406-0.81392 1.3055 1.6862 1.3461 1.6555 0.73984-0.55989-0.35273-1.2891-1.2881-5.2969-2.0786-8.9062-0.79049-3.6094-2.025-8.25-2.7434-10.312-0.71842-2.0625-1.3123-4.2668-1.3198-4.8984-8e-3 -0.63161-1.2793-3.9117-2.8261-7.2891-2.822-6.1615-3.6255-10.781-1.875-10.781 0.51562 0 0.9375 0.63281 0.9375 1.4062s0.37614 1.4062 0.83587 1.4062 1.1044 1.0701 1.4327 2.3781c0.32827 1.3079 1.7834 4.9994 3.2336 8.2031 1.4502 3.2038 3.3899 8.1453 4.3104 10.981s2.0424 6.1253 2.493 7.3097c0.45066 1.1844 0.81937 2.9774 0.81937 3.9844s0.35499 1.8309 0.78887 1.8309c2.5048 0-7.7182-32.271-14.976-47.276-1.4784-3.0562-2.6879-5.9486-2.6879-6.4276 0-0.47895-1.0018-1.6589-2.2263-2.622-1.2622-0.99287-2.689-3.5887-3.2948-5.9943-0.58763-2.3337-1.3883-4.2431-1.7792-4.2431-0.39095 0-1.5314-1.582-2.5342-3.5156-1.0029-1.9336-2.5696-4.5144-3.4817-5.7352-0.91203-1.2208-1.4395-2.5734-1.1722-3.0059 0.96663-1.5641 3.1241 0.29232 4.586 3.946 0.82131 2.0526 2.3306 4.6309 3.3541 5.7294 1.0234 1.0985 1.8608 2.6962 1.8608 3.5503 0 0.85411 0.87368 2.3436 1.9415 3.31 1.0678 0.96638 2.9811 4.0299 4.2518 6.8078 1.2706 2.7779 2.9282 5.6687 3.6835 6.424s1.3732 2.006 1.3732 2.7795 0.63281 2.0391 1.4062 2.8125c1.25 1.25 1.4062 1.1966 1.4062-0.48038 0-1.0377-0.42188-2.1474-0.9375-2.466-0.51563-0.31868-0.9375-1.2277-0.9375-2.02s-0.78456-2.5604-1.7435-3.929c-0.95889-1.3686-3.6364-6.0744-5.95-10.457-6.6486-12.595-8.2704-15.309-10.676-17.864-1.2404-1.3173-2.2552-2.8503-2.2552-3.4066s-1.793-3.7099-3.9844-7.0079c-7.7046-11.595-9.3798-14.639-8.6802-15.771 0.2954-0.47796 1.1564-0.63138 1.9133-0.34092 0.75692 0.29046 1.3762 0.0611 1.3762-0.5097 0-1.0147-1.2076-1.4033-3.4734-1.1175-1.4802 0.1867-4.3634-4.2419-3.5833-5.5041 0.33269-0.5383 1.2164-0.97873 1.9638-0.97873 1.1242 0 1.1566-0.32382 0.18791-1.875-0.64402-1.0312-1.5332-1.875-1.9758-1.875-0.44269 0-2.6386 1.9412-4.8797 4.3139-2.2412 2.3726-4.6252 4.1195-5.2977 3.882-1.7953-0.63404-1.1353-5.3255 1.081-7.6847 1.0532-1.1211 1.8816-2.6439 1.8408-3.3841-0.0526-0.95597-0.21099-1.0064-0.54687-0.17395-0.26007 0.64453-1.0705 1.1719-1.801 1.1719-0.73047 0-1.3281 0.37381-1.3281 0.83068s-1.5061 1.5454-3.3469 2.4189c-6.1796 2.9324-8.4714-0.69933-2.7847-4.4128 4.7472-3.0999 5.6728-5.5334 5.5907-14.698-0.0699-7.8059-0.21303-8.3104-4.8071-16.952-3.7147-6.9871-5.1133-8.8365-6.4904-8.5827-2.5386 0.46785-2.7624 0.94297-1.4409 3.059 1.665 2.6661 0.55921 5.2183-3.4356 7.9298-1.8927 1.2847-4.9178 3.4072-6.7225 4.7168-2.3294 1.6904-3.9611 2.2155-5.625 1.8101-1.2891-0.31401-2.7657-0.57134-3.2813-0.57182-2.1204-2e-3 -8.5853 1.7025-10.632 2.8031-1.7259 0.92817-2.7745 0.93987-4.9113 0.0548-4.2689-1.7682-12.276-0.38001-16.313 2.8283-1.8518 1.4716-2.964 2.9246-2.4716 3.2289s1.4729 0.02209 2.179-0.62718c3.7728-3.4694 9.265-4.5482 12.994-2.5522 0.99893 0.53461 4.5991 1.0194 8.0004 1.0774l6.1842 0.10538 1.6874 3.9367c2.2884 5.3386 4.1235 17.349 2.846 18.626-2.0681 2.0681-0.69951 4.5597 6.6182 12.048 4.1735 4.271 10.153 11.14 13.287 15.265s8.6245 10.981 12.201 15.235c5.1443 6.1191 6.3889 8.1868 5.959 9.8995-0.45701 1.8209-0.0262 2.352 2.7103 3.3415 1.7895 0.64709 3.7424 2.0898 4.3398 3.2061 0.59741 1.1163 1.7284 2.6711 2.5134 3.4552 2.6927 2.6896 14.229 20.845 14.82 23.323 0.32483 1.3626 0.88361 2.8993 1.2417 3.4149 0.3581 0.51563 1.2003 2.4141 1.8716 4.2188 0.67126 1.8047 2.4819 5.9535 4.0236 9.2195 1.5418 3.266 3.1356 7.2738 3.5418 8.9062 0.89445 3.594 2.7343 8.9383 3.8415 11.158 0.44652 0.89535 0.81184 4.0088 0.81184 6.9188v5.2909l4.2651-0.48073c2.3458-0.2644 4.5484-0.76408 4.8947-1.1104zm-9.6615-12.769c-0.33678-0.54492-0.35365-2.0215-0.0375-3.2812 0.42069-1.676 0.19288-2.2905-0.84921-2.2905-0.78326 0-1.4241-0.68201-1.4241-1.5156 0-1.076 0.56856-1.3669 1.9602-1.003 1.7364 0.45408 1.882 0.22578 1.2748-2-0.37697-1.3819-0.96758-4.2156-1.3124-6.2969s-0.9254-4.267-1.2901-4.8571c-0.36467-0.59004-0.29786-1.2985 0.14846-1.5743 0.44632-0.27585 1.3484 0.64422 2.0045 2.0446 0.65614 1.4004 1.7744 3.6659 2.485 5.0345 0.71062 1.3686 1.292 3.5586 1.292 4.8666s0.42187 2.6389 0.9375 2.9576c1.607 0.99318 1.0274 3.4333-0.9375 3.9471-2.0326 0.53154-2.4388 1.6876-0.92221 2.6248 0.52403 0.32387 0.71008 0.98158 0.41342 1.4616-0.72778 1.1776-2.9862 1.1063-3.7429-0.11807zm-6.1876-31.484c-1.8658-2.1227-6.4357-12.044-6.4357-13.972 0-0.76516-0.51138-2.21-1.1364-3.2108-1.5347-2.4574 0.0107-3.8013 1.6498-1.4347 0.71369 1.0304 1.7382 2.3877 2.2767 3.0161 1.5065 1.7581 5.8048 14.231 5.473 15.881-0.25195 1.2534-0.5153 1.213-1.8274-0.27976zm-1.309-19.562c-1.9543-4.3858-3.3106-8.2169-3.014-8.5135 1.1323-1.1323 4.4498 1.6324 4.4498 3.7082 0 1.185 0.28913 2.4436 0.64251 2.797 0.81345 0.81346 3.0746 7.2538 3.0934 8.8106 0.0367 3.0537-1.9365 0.45827-5.1717-6.8024zm-19.149-11.01c-6.9427-14.269-9.9708-19.862-17.756-32.797-2.7066-4.4972-4.6545-8.608-4.3287-9.1353 0.92267-1.4929 3.2882-1.1278 3.9552 0.61042 0.33115 0.86296 1.36 2.3269 2.2862 3.2532 0.9263 0.92629 3.1118 4.5445 4.8567 8.0404s4.9271 9.5203 7.0715 13.387c9.6273 17.362 14.466 30 11.487 30-0.58967 0-3.9972-6.0117-7.5723-13.359zm44.745 74.121c-0.57944-1.7383-2.5976-2.0266-2.5976-0.37109 0 0.8164 0.66797 1.4844 1.4844 1.4844 0.81641 0 1.3174-0.50098 1.1133-1.1133zm-24.468-8.5825c-0.75744-1.6283-2.7065-6.1127-4.3313-9.9653s-3.2634-7.2276-3.6415-7.5c-1.0159-0.73191-7.6567-10.023-7.6567-10.713 0-1.108-14.178-21.638-18.581-26.907-8.1261-9.7225-12.803-15.088-17.14-19.666-2.3734-2.5048-6.0414-6.7828-8.151-9.5068-3.7072-4.7868-7.6899-8.7699-7.6899-7.6906 0 1.0357 5.4874 8.4265 8.6452 11.644 1.7712 1.8047 4.4505 4.9688 5.9541 7.0312s2.9749 3.9609 3.2697 4.2188 1.8777 2.441 3.5176 4.8516 3.5296 4.9418 4.1992 5.625c2.145 2.1884 14.569 19.186 16.415 22.458 0.98031 1.7375 5.1148 8.0506 9.1876 14.029 4.0729 5.9785 9.5146 15.353 12.093 20.832 4.0987 8.7103 4.7252 9.6009 4.9877 7.0905 0.16511-1.5791-0.31952-4.2033-1.077-5.8316zm-46.725 2.2535c-2.3336-2.9539-3.5918-3.5668-3.5918-1.7497 0 1.5833 5.0565 6.6786 5.4516 5.4935 0.17917-0.53751-0.65773-2.2222-1.8598-3.7438zm-14.923-1.442c-2.3143-2.388-6.9882-5.6211-10.845-7.5017-7.1847-3.5034-8.6111-4.7642-7.0998-6.2755 1.0781-1.0781 6.0131 1.1296 9.3542 4.1846 1.1602 1.0608 2.1094 1.6161 2.1094 1.234 0-1.7104-4.8923-6.8326-8.143-8.5258-4.8666-2.5348-9.6656-7.9813-7.0324-7.9813 1.4029 0 9.9826 4.5025 13.248 6.9525 3.8709 2.9041 5.163 3.0901 3.8022 0.5475-0.55191-1.0312-1.5927-1.875-2.3129-1.875-0.72018 0-2.2106-1.2656-3.3121-2.8125s-2.748-2.8125-3.6589-2.8125-2.7839-1.2656-4.1621-2.8125c-1.3783-1.5469-2.2927-2.8125-2.032-2.8125 1.5616 0 13.454 6.9764 15.571 9.1341 3.7606 3.8336 5.2932 4.9284 6.899 4.9284 0.7952 0 1.4458 0.64326 1.4458 1.4294 0 0.7862 0.94922 1.8046 2.1094 2.263 1.1602 0.45845 4.3589 3.0028 7.1083 5.6542s5.4916 4.6542 6.0938 4.4506c1.1507-0.38892-15.36-17.015-18.593-18.723-1.0312-0.54478-3.9844-2.7656-6.5625-4.9351s-6.5859-4.994-8.9062-6.2766-5.8597-3.4499-7.8652-4.8163c-2.0056-1.3664-4.1852-2.4844-4.8438-2.4844-0.65852 0-1.3379-0.3192-1.5098-0.70934-0.82638-1.8758-12.041-10.645-12.92-10.102-1.4776 0.91319-4.7069-0.35194-4.2332-1.6584 0.22417-0.61814-1.063-2.8068-2.8603-4.8636-1.7974-2.0569-3.2679-4.2569-3.2679-4.8889 0-0.63202-0.86394-1.6115-1.9199-2.1766-1.0559-0.56511-2.314-2.0641-2.7957-3.331-0.4817-1.267-1.9381-2.7074-3.2364-3.201-2.6683-1.0145-2.9293-2.4568-0.9245-5.1074 1.618-2.1391 1.7613-3.3364 0.39937-3.3364-0.99129 0-2.2931 0.9261-5.7801 4.1119-1.8493 1.6896-6.8584 3.3182-10.352 3.3658-0.95668 0.013-1.6406-0.67361-1.6406-1.6471 0-1.202 1.3619-2.0715 4.8631-3.1049 4.666-1.3773 7.2294-3.6631 4.108-3.6631-1.2251 0-1.0748-0.63985 0.8258-3.5156 1.411-2.135 2.5492-5.5406 2.8983-8.6719 0.51675-4.6357 0.29438-5.592-2.2026-9.4724-2.3724-3.6867-3.3494-4.4076-6.6996-4.9433-3.0472-0.48727-3.8485-0.98839-3.5919-2.2464 0.2469-1.2105 1.2123-1.592 3.8244-1.5114 2.8524 0.088 3.299-0.12723 2.4321-1.1719-0.58412-0.70382-2.6814-1.2797-4.6607-1.2797-2.5122 0-4.1851-0.62947-5.5412-2.085-2.257-2.4226-4.3925-1.6511-6.3272 2.2858-0.641 1.3043-1.7421 2.8501-2.447 3.4351-1.5855 1.3158-0.88468 5.7392 0.90923 5.7392 0.71333 0 1.297-0.61797 1.297-1.3733 0-1.6509 3.41-3.6853 4.1555-2.4791 0.2856 0.46212-0.1908 2.6781-1.0587 4.9244-0.86788 2.2463-1.8142 7.8811-2.103 12.522-0.49263 7.9165-0.65858 8.4564-2.6874 8.744-2.4798 0.35151-4.7819 4.3743-3.3326 5.8235 0.5076 0.50759 2.792 1.8672 5.0764 3.0214 5.5681 2.8133 8.547 7.3325 7.822 11.867-0.5262 3.2907-0.2619 3.698 6.8058 10.488 24.602 23.635 22.364 21.714 30.088 25.817 1.6758 0.89008 3.0469 1.9621 3.0469 2.3822 0 0.42014 0.53033 0.76387 1.1785 0.76387s3.4621 1.8732 6.2531 4.1627c4.6195 3.7894 8.6395 6.1757 27.256 16.18 3.3516 1.801 6.4945 3.6561 6.9844 4.1224 0.48985 0.46626 1.4922 0.84776 2.2274 0.84776 0.75066 0-0.44645-1.84-2.7304-4.1967zm-29.338-19.089c-1.4851-0.87239-2.6769-1.9912-2.6484-2.4862 0.11004-1.9121 2.0457-1.4066 5.0398 1.3161 3.426 3.1153 2.0588 3.7842-2.3914 1.1701zm-25.217-37.779c-2.3771-1.7731-6.1037-7.373-4.9066-7.373 1.6393 0 7.0209 4.485 7.0306 5.8594 7e-3 0.90235 0.64442 1.6406 1.4179 1.6406s1.4062 0.42187 1.4062 0.9375c0 1.4957-2.1301 1.0374-4.9481-1.0645zm107.74 57.786c-0.78109-0.7811-1.7086-2.3669-2.0612-3.524-0.73223-2.403-3.1314-5.3851-4.3324-5.3851-0.44554 0-0.53003 1.1158-0.18777 2.4794 0.6518 2.597 7.1555 9.8546 7.6919 8.5836 0.17034-0.4036-0.32937-1.3729-1.1105-2.154zm-12.793-1.2528c0-1.2394-6.8152-7.7215-7.4219-7.0592-0.30078 0.32841-0.0195 0.78544 0.625 1.0156 0.64454 0.23019 1.1719 0.88352 1.1719 1.4518 0 1.2282 3.742 5.3729 4.8509 5.3729 0.42574 0 0.77408-0.35156 0.77408-0.78125zm-31.109-5.0781c-0.68339-0.64453-2.0601-1.8047-3.0594-2.5781-1.615-1.25-1.7286-1.25-1.0222 0 1.5422 2.729 2.6219 3.75 3.9657 3.75 1.1244 0 1.1444-0.20187 0.11591-1.1719zm34.859-0.23437c0-0.77344-0.68447-1.4062-1.521-1.4062-1.2458 0-1.3098 0.25452-0.35396 1.4062 0.6419 0.77344 1.3264 1.4062 1.521 1.4062 0.19468 0 0.35396-0.63281 0.35396-1.4062zm-12.188-3.261c0-0.50451-2.9102-3.9035-6.4671-7.5533-7.1809-7.3685-9.03-10.778-5.0174-9.2528 1.3033 0.4955 2.5933 0.67716 2.8668 0.40369 0.27346-0.27348-3.4764-4.4004-8.3332-9.1709-9.0356-8.8753-11.405-11.42-21.006-22.558-3.0306-3.5159-6.5933-6.9622-7.9173-7.6584-2.8243-1.4854-10.376-8.6196-10.376-9.8024 0-2.1853 10.895 3.9704 12.068 6.8185 0.1919 0.46593 3.13 3.4347 6.5291 6.5972 14.75 13.723 23.591 22.537 23.591 23.517 0 1.0263 21.865 23.337 24.415 24.914 0.70206 0.4339 1.5734 0.60539 1.9364 0.38109 1.3056-0.80691-0.30875-3.9499-2.6769-5.2117-4.3517-2.3187-14.537-13.766-18.571-20.874-0.84634-1.4909-3.1846-4.4236-5.1961-6.517-3.5481-3.6926-4.4363-5.3035-2.9241-5.3035 0.40329 0 3.3564 2.7131 6.5625 6.0292 4.3036 4.4512 5.8292 5.5554 5.8292 4.2188 0-0.99574-0.42188-1.8104-0.9375-1.8104-0.51563 0-0.9375-0.64605-0.9375-1.4357 0-0.78963-0.60003-1.6659-1.3334-1.9474-0.73337-0.28141-1.9694-2.0612-2.7467-3.9549-0.77729-1.8938-2.3921-4.5013-3.5885-5.7943-2.9096-3.1448-7.1772-8.2391-10.613-12.668-1.5469-1.9944-5.7656-7.2813-9.375-11.749-3.6094-4.4674-9.0493-11.557-12.089-15.755-3.4923-4.8235-6.1665-7.6328-7.2656-7.6328-2.0978 0-2.2481-2.5297-0.30325-5.1011 1.8192-2.4053 1.8103-2.4435-1.3862-5.9432-2.4838-2.7194-2.6608-3.3166-1.7543-5.9172 1.3777-3.952 0.32762-11.581-2.0545-14.926-2.4088-3.3829-7.3692-5.8556-10.929-5.448-2.1081 0.24141-2.7174 0.83615-2.9528 2.8823-0.17735 1.5413 0.15446 2.5781 0.82504 2.5781 0.80623 0 0.93521 1.2524 0.45857 4.4531-0.36472 2.4492-0.95153 7.0306-1.304 10.181-0.96439 8.6184-3.5452 10.831-7.5996 6.5154-1.5405-1.6398-2.1348-3.3667-2.0972-6.0938 0.0585-4.2398-0.65233-4.7688-2.4786-1.8445-1.0454 1.674-0.99091 2.1319 0.37244 3.1288 1.3202 0.96539 1.447 1.8025 0.73108 4.8296-1.1172 4.7242-3.3952 5.1995-7.0422 1.4692-1.5785-1.6145-3.3652-2.6226-4.1289-2.3295-2.4718 0.94852-1.3889 2.8218 3.3255 5.7524 6.2565 3.8893 8.4453 7.6469 8.4497 14.506 3e-3 4.9545 0.30644 5.7463 3.59 9.375 1.9726 2.1799 4.2179 4.8995 4.9896 6.0435 0.77169 1.144 3.271 4.1145 5.5541 6.6011s5.2057 5.78 6.4948 7.3187c2.6618 3.1773 25.174 22.897 37.388 32.75 4.4742 3.6094 11.918 10.465 16.543 15.234 4.6243 4.7695 8.5144 8.6719 8.6448 8.6719 0.13035 0 0.237-0.41278 0.237-0.9173zm-20.625-43.614c0-0.77344 0.16581-1.4062 0.36845-1.4062 0.20265 0 0.61127 0.63281 0.90808 1.4062 0.29679 0.77344 0.13099 1.4062-0.36845 1.4062s-0.90808-0.63281-0.90808-1.4062zm-39.282-24.774c-1.2226-0.92221-1.8189-1.9264-1.3251-2.2316 0.49379-0.30519 1.6361 0.30736 2.5384 1.3612 2.1662 2.53 1.5617 2.9636-1.2133 0.87038zm32.72 65.5c0-0.4852-0.45201-0.88217-1.0045-0.88217-0.55245 0-1.6412-0.63669-2.4193-1.4149-0.77817-0.77818-1.8096-1.1709-2.2921-0.87271-1.1491 0.71016-0.14774 2.2876 1.4522 2.2876 0.68784 0 1.5037 0.65955 1.813 1.4657 0.56992 1.4852 2.4507 1.0374 2.4507-0.5835zm104.73-6.2728c-0.2148-1.418-0.39055-0.25781-0.39055 2.5781s0.17575 3.9961 0.39055 2.5781c0.21481-1.418 0.21481-3.7383 0-5.1562zm10.165-7.2243c-0.32686-4.1477-0.92901-10.916-1.3381-15.041l-0.74384-7.5-0.17298 7.5c-0.0951 4.125-0.56632 8.122-1.0471 8.8822-0.61585 0.97385-0.33462 1.8848 0.95185 3.0834 1.4545 1.3551 1.8519 3.0765 1.9536 8.4615 0.0702 3.7182 0.32188 5.7243 0.55926 4.4579 0.23736-1.2663 0.16414-5.696-0.16272-9.8438zm-164.7 7.9613c-3.5061-3.2023-8.3458-5.7558-9.5263-5.0262-0.94395 0.58339 1.8957 2.7617 7.2588 5.5682 5.2973 2.7721 5.7718 2.6587 2.2675-0.54202zm132.94-6.7721c-0.29927-0.74787-0.52142-0.52573-0.5664 0.56641-0.0407 0.98827 0.18087 1.542 0.49239 1.2305 0.31152-0.31153 0.34482-1.1201 0.074-1.7969zm-49.39-1.2305c-0.66258-0.79836-1.3981-1.2582-1.6344-1.0218-0.51651 0.51651 1.9436 3.3289 2.4711 2.8249 0.20239-0.19335-0.17414-1.0047-0.83672-1.8031zm-97.514-0.23438c-0.02887-1.4156-1.4432-2.8102-3.5013-3.4524-1.1602-0.36206-2.1094-0.38107-2.1094-0.0423 0 0.76711 3.9656 4.1242 4.9219 4.1666 0.38672 0.0172 0.69667-0.28521 0.68877-0.67193zm94.702-2.6334c0-0.80387-0.42876-1.1966-0.95279-0.87272-0.52404 0.32387-0.71008 0.98158-0.41342 1.4616 0.80365 1.3004 1.3662 1.0579 1.3662-0.58886zm-151.98-4.2498c-2.0202-1.2794-2.7048-1.0119-2.7048 1.0569 0 1.6577 0.26255 1.7675 2.0017 0.83674 1.5992-0.8559 1.7406-1.2366 0.70312-1.8936zm45.58 0.0915c-0.31696-0.51285-1.4158-1.3818-2.442-1.9309-1.7135-0.91702-1.7673-0.84094-0.65977 0.93246 0.66324 1.062 1.7621 1.9309 2.442 1.9309s0.97674-0.41961 0.65977-0.93246zm100.4-4.5355c-1.3701-1.3701-1.4963-1.3574-1.4963 0.15037 0 0.9057 0.52734 2.2202 1.1719 2.9212 0.98355 1.0696 1.224 1.0455 1.4963-0.15037 0.17845-0.78366-0.34889-2.0982-1.1719-2.9212zm49.778-2.7173c-0.2377-0.91216-0.44781-0.39285-0.46691 1.154-0.0191 1.5469 0.17536 2.2932 0.43217 1.6585 0.2568-0.63472 0.27243-1.9004 0.0348-2.8125zm-156.27 1.2543c0-0.88934-2.8063-1.3376-3.3066-0.52811-0.30476 0.49311 0.31455 0.89656 1.3762 0.89656 1.0617 0 1.9303-0.16581 1.9303-0.36845zm154.37-6.4284c-0.26007-0.64453-0.47287-0.11718-0.47287 1.1719s0.2128 1.8164 0.47287 1.1719c0.26007-0.64453 0.26007-1.6992 0-2.3438zm-2.408-4.7402c-0.74223-0.74223-1.0254-0.49897-1.0254 0.88083 0 2.4785 1.311 3.7941 1.7285 1.7345 0.17727-0.87446-0.13914-2.0514-0.70312-2.6154zm-95.713 2.6862c0-0.22738-0.42188-0.67415-0.9375-0.99283-0.51563-0.31868-0.9375-0.13264-0.9375 0.41342 0 0.54605 0.42187 0.99283 0.9375 0.99283 0.51562 0 0.9375-0.18604 0.9375-0.41342zm-66.86-16.637c-0.29927-0.74787-0.52142-0.52573-0.56641 0.56641-0.04071 0.98827 0.18087 1.542 0.49239 1.2305 0.31152-0.31153 0.34483-1.1201 0.07402-1.7969zm202.5 0c-0.29927-0.74787-0.52142-0.52573-0.5664 0.56641-0.0407 0.98827 0.18087 1.542 0.49239 1.2305 0.31152-0.31153 0.34482-1.1201 0.074-1.7969zm-155.36-2.4023c-0.0581-1.3711-2.7732-4.3064-3.4018-3.6778-0.35116 0.35116 0.17183 1.4554 1.1622 2.454 2.0567 2.0736 2.2808 2.1961 2.2396 1.2238zm152.9-10.373c-0.54491-0.18164-1.0506-1.0334-1.1238-1.8928-0.0731-0.85937-0.40802 0.125-0.7441 2.1875-0.4175 2.562-0.22686 4.0797 0.60178 4.7908 0.66708 0.57248 1.2926 2.26 1.3901 3.75s0.3324 0.18589 0.522-2.8981c0.20944-3.4066-0.0441-5.7369-0.64601-5.9375zm-164.35 3.8109c0.51258-1.5395-2.4248-2.6384-3.6847-1.3785-0.53916 0.53916-0.68241 1.4623-0.31832 2.0514 0.82833 1.3402 3.4812 0.89434 4.003-0.67286zm4.5607-1.6411c-0.83274-1.2891-2.1954-3.3984-3.0281-4.6875-1.8831-2.915-3.1611-3.0348-2.4998-0.23437 0.51225 2.1694 4.7865 7.1166 6.2311 7.212 0.44602 0.0294 0.12962-1.0011-0.70313-2.2902zm75.361 1.631c0-1.0687-4.6284-5.8498-5.6629-5.8498-0.49476 0-0.90338-0.52734-0.90806-1.1719-5e-3 -0.64454-1.3472-2.2266-2.9833-3.5156-2.9076-2.2908-11.436-10.976-23.244-23.672-3.2372-3.4805-6.2237-6.3281-6.6367-6.3281-0.41301 0-1.0234 0.85856-1.3565 1.9079-0.49086 1.5466 1.3847 3.8105 9.9023 11.953 5.7793 5.5249 11.427 10.678 12.55 11.451 1.1233 0.77344 4.3381 3.968 7.1439 7.099 5.925 6.6118 11.195 10.437 11.195 8.1258zm-133.34-2.1614c-1.0473-0.61035-2.6978-0.63008-4.6875-0.0561-2.9593 0.85379-2.9005 0.88806 1.6165 0.94206 3.5697 0.0427 4.302-0.16859 3.071-0.88601zm5.5117-7.1369c-0.26909-0.26909-0.95968-0.19852-1.5346 0.15683-0.75038 0.46377-0.70184 1.0606 0.172 2.1149 1.0968 1.3233 1.2488 1.3078 1.5346-0.15683 0.17449-0.89409 0.09709-1.8458-0.172-2.1149zm34.609 0.23422c1.5582-1.5582 1.712-2.4107 0.43477-2.4107-0.49748 0-1.3561 0.84375-1.908 1.875-1.1709 2.1878-0.44343 2.4524 1.4732 0.53572zm-27.723-9.9107c0-3.6094-0.22138-6.5625-0.49195-6.5625-1.2658 0-2.3278 5.405-1.78 9.0584 0.94106 6.2754 2.2719 4.8134 2.2719-2.4959zm191.38-16.406-0.84203-5.625-0.11432 6.7202c-0.0629 3.6961 0.20209 7.493 0.58881 8.4375 1.1298 2.7594 1.3505-2.9661 0.36754-9.5327zm6.5026 3.917c-0.72272-0.72272-1.0108-0.20034-1.0108 1.833 0 3.7008 1.3155 5.0254 1.7139 1.7257 0.16922-1.4013-0.14719-3.0028-0.70313-3.5587zm-166.62 2.605c-0.30534-0.79568-0.75622-1.2456-1.002-0.99987-0.24575 0.24574-0.16873 0.89675 0.17114 1.4467 0.92442 1.4957 1.4647 1.2052 0.83081-0.44681zm165.15-17.303c0.31867-0.51562 0.13264-0.9375-0.41342-0.9375s-0.99283 0.42188-0.99283 0.9375 0.18604 0.9375 0.41342 0.9375 0.67416-0.42188 0.99283-0.9375zm-170.38-0.8761c0.89535-0.48185 2.999-1.4286 4.6748-2.1039 1.6758-0.67527 3.0469-1.5405 3.0469-1.9227s-2.1886 0.16769-4.8635 1.2221c-2.6749 1.0544-7.2101 2.2624-10.078 2.6845l-5.2146 0.76748 5.4033 0.11432c2.9718 0.06288 6.1359-0.27992 7.0312-0.76178zm17.718-10.608c-0.26007-0.64453-0.47287-0.11719-0.47287 1.1719 0 1.2891 0.2128 1.8164 0.47287 1.1719s0.26007-1.6992 0-2.3438zm78.484-4.6875c0.36716-1.5305 0.23028-2.5781-0.33687-2.5781-0.52545 0-0.95536 1.3359-0.95536 2.9688 0 3.4137 0.40925 3.29 1.2922-0.39062zm-76.589-5.5664c-0.29927-0.74788-0.52142-0.52573-0.5664 0.56641-0.0407 0.98828 0.18086 1.542 0.49239 1.2305 0.31152-0.31152 0.34482-1.1201 0.074-1.7969zm176.65-0.05859c0.7684-0.64453 1.9345-1.885 2.5913-2.7566 1.0833-1.4374 0.97867-1.483-1.1255-0.48994-1.2758 0.60211-2.7868 1.8426-3.3576 2.7566-1.201 1.9232-0.14343 2.1971 1.8918 0.48994zm-98.815-5.625c-0.22345-1.1602-0.40628-0.21094-0.40628 2.1094 0 2.3203 0.18283 3.2695 0.40628 2.1094 0.22346-1.1602 0.22346-3.0586 0-4.2188zm70.291-1.8164c-0.29927-0.74788-0.52142-0.52573-0.5664 0.56641-0.0407 0.98828 0.18087 1.542 0.49239 1.2305 0.31152-0.31152 0.34482-1.1201 0.074-1.7969zm34.047-0.76172c0-1.5469-0.16306-2.8125-0.36234-2.8125-0.1993 0-0.5481 1.2656-0.77514 2.8125-0.22703 1.5469-0.0639 2.8125 0.36235 2.8125 0.42632 0 0.77513-1.2656 0.77513-2.8125zm-45.253-8.1822c-0.20295-1.9451-0.3724-0.58341-0.37656 3.026-4e-3 3.6094 0.16189 5.2008 0.36899 3.5365 0.20711-1.6643 0.21051-4.6174 7e-3 -6.5625zm-60.478 4.4735c-0.56506-3.85-1.1435-3.6058-1.1435 0.4828 0 1.8351 0.35153 3.1193 0.78119 2.8538s0.59271-1.767 0.36234-3.3366zm111.07-1.6641c-0.2377-0.91216-0.44781-0.39284-0.46691 1.154s0.17536 2.2932 0.43217 1.6585c0.2568-0.63472 0.27243-1.9003 0.0348-2.8125zm-5.2876-3.5806c-0.45425-1.521-0.86218-2.0616-0.9065-1.2014-0.09 1.7459 0.9107 4.7885 1.4105 4.2887 0.17706-0.17706-0.0497-1.5664-0.50399-3.0873zm14.95-1.8279c0-4.8288-1.4833-6.3087-2.8142-2.8079-1.2842 3.3778-1.1739 6.785 0.23612 7.2907 2.0203 0.72472 2.5781-0.24517 2.5781-4.4829zm-123.1-0.21653c-0.2377-0.91216-0.44781-0.39284-0.46691 1.154s0.17536 2.2932 0.43217 1.6585c0.2568-0.63472 0.27243-1.9003 0.0348-2.8125zm114.19-3.0647c0.31867-0.51562 0.13264-0.9375-0.41342-0.9375s-0.99283 0.42188-0.99283 0.9375 0.18604 0.9375 0.41342 0.9375 0.67416-0.42188 0.99283-0.9375zm-53.285-3.0469c-0.26007-0.64453-0.47287-0.11719-0.47287 1.1719 0 1.2891 0.2128 1.8164 0.47287 1.1719s0.26007-1.6992 0-2.3438zm-2.6579-11.171c-1.1999-0.92311-3.0028-1.6878-4.0062-1.6992-1.5654-0.01789-1.399 0.41822 1.1719 3.0707 1.648 1.7003 3.0344 3.9152 3.081 4.9219 0.0482 1.0428 0.48268 0.44377 1.0098-1.3923 0.8189-2.8521 0.67442-3.4156-1.2564-4.901zm7.662 4.8424c0-1.295-0.625-1.875-2.0203-1.875-1.9609 0-1.9704 0.05512-0.32345 1.875 0.93327 1.0312 1.8424 1.875 2.0203 1.875 0.17789 0 0.32345-0.84375 0.32345-1.875zm-16.229-5.9694c-0.80143-2.0885-3.7868-3.4279-5.3842-2.4156-1.1007 0.69754-0.82664 1.2893 1.4568 3.1459 2.8353 2.3052 4.942 1.9135 3.9274-0.73027zm97.512 275.38c-1.3391-1.3391 1.3729-4.0955 4.0295-4.0955 1.7226 0 3.096 0.65305 3.684 1.7517 1.2379 2.313 0.45645 2.9358-3.684 2.9358-1.8906 0-3.7039-0.26641-4.0295-0.59201zm10.152-2.1734c-0.71679-1.1598 1.5192-2.2231 3.7156-1.767 0.83079 0.17251 1.5014 0.73553 1.4902 1.2512-0.0283 1.3012-4.4496 1.7394-5.2058 0.51586zm-86.217-101.53c-0.45749-1.5397-2.4168-25.675-2.3783-29.297 0.0506-4.7734 1.658-0.65157 3.7163 9.5303 2.3239 11.495 2.525 20.938 0.44584 20.938-0.78963 0-1.5924-0.52734-1.7839-1.1719zm60.425-1.4062c0.0101-0.90234 0.673-5.0156 1.473-9.1406s1.7925-9.3984 2.2055-11.719 2.3249-11.18 4.2487-19.688c5.3545-23.68 6.11-27.888 6.7337-37.5 0.60215-9.2805 1.5746-12.682 3.3175-11.605 1.188 0.73424 0.3296 21.557-1.1741 28.48-0.50397 2.3203-1.3117 6.3281-1.7949 8.9062-1.931 10.302-4.3336 21.064-8.5811 38.438-0.50424 2.0625-1.298 5.793-1.764 8.2899-0.8405 4.5041-2.2787 7.1788-3.86 7.1788-0.45249 0-0.81441-0.73828-0.80427-1.6406zm-88.45-91.885c-0.84164-4.1819-7.1882-22.886-9.1423-26.944-2.4467-5.0803-2.4313-9.8438 0.0317-9.8438 1.3746 0 1.997 0.87655 2.4906 3.5078 0.36194 1.9293 1.6467 5.3671 2.855 7.6396s2.1969 4.8878 2.1969 5.8119c0 0.92402 0.42187 1.9408 0.9375 2.2594 0.51562 0.31867 0.9375 1.5843 0.9375 2.8125s0.42187 2.4938 0.9375 2.8125c1.1591 0.71634 1.2534 13.288 0.105 13.998-0.45788 0.28298-1.0651-0.64134-1.3494-2.054zm73.9 0.47832c-0.95926-2.3553 0.2155-5.0825 1.595-3.703 0.76596 0.76596 0.78511 1.6626 0.0684 3.2036-0.88776 1.9088-1.0674 1.9628-1.6635 0.49934zm40.489-13.496c-1.3793-1.3793-0.58207-10.19 1.2968-14.333 2.8902-6.3726 3.2034-6.8813 4.8924-7.9466 1.1091-0.69958 1.8754-0.65586 2.6844 0.15317 0.88467 0.88466 0.69649 2.1101-0.86052 5.6039-1.8333 4.1139-2.4498 5.9208-4.7044 13.788-0.80138 2.7964-2.1402 3.9029-3.3087 2.7344zm-4.8669-13.463c-0.35597-0.57598-1.6083-1.4126-2.7828-1.8592-1.6471-0.62621-2.0326-1.3508-1.6854-3.1673 0.24764-1.2954 1.2297-3.0608 2.1824-3.9229 1.6366-1.4811 1.7646-1.4384 2.3199 0.7741 0.44364 1.7676 1.0448 2.2221 2.4521 1.8541 1.6576-0.43348 1.8313-0.0845 1.5659 3.1464-0.29998 3.6521-2.6292 5.4771-4.0521 3.1749zm-41.715-6.232c0-2.0529 0.21779-2.2484 1.4062-1.262 0.77344 0.6419 1.4062 1.4922 1.4062 1.8895 0 0.39732-0.63281 0.96524-1.4062 1.262-1.027 0.39411-1.4062-0.11544-1.4062-1.8895zm20.331-8.9591c0.52402-8.98 1.0032-11.053 2.555-11.053 2.8308 0 3.1196 5.5859 0.65124 12.599-2.4692 7.0153-3.672 6.4355-3.2062-1.5458zm-110.63-6.0863c-0.25908-0.4192-0.78649-2.4465-1.172-4.505-0.38553-2.0586-1.2964-5.1695-2.0242-6.9131-1.5128-3.6244-0.39238-5.9181 1.9438-3.9793 2.0912 1.7355 5.4423 10.29 5.12 13.07-0.27836 2.4008-2.8615 3.9555-3.8675 2.3278z"/>
</svg>
